<svg width="20" height="20" viewBox="0 0 20 20" fill="none" xmlns="http://www.w3.org/2000/svg">
<rect width="20" height="20" rx="10" fill="#CCF0FF"/>
<path d="M11.6194 14.5467C11.4928 14.5467 11.3661 14.5001 11.2661 14.4001C11.0728 14.2067 11.0728 13.8867 11.2661 13.6934L14.9594 10.0001L11.2661 6.30674C11.0728 6.11341 11.0728 5.79341 11.2661 5.60008C11.4594 5.40674 11.7794 5.40674 11.9728 5.60008L16.0194 9.64674C16.2128 9.84008 16.2128 10.1601 16.0194 10.3534L11.9728 14.4001C11.8728 14.5001 11.7461 14.5467 11.6194 14.5467Z" fill="#00A9F1"/>
<path d="M15.552 10.5H4.33203C4.0587 10.5 3.83203 10.2733 3.83203 10C3.83203 9.72667 4.0587 9.5 4.33203 9.5H15.552C15.8254 9.5 16.052 9.72667 16.052 10C16.052 10.2733 15.8254 10.5 15.552 10.5Z" fill="#00A9F1"/>
</svg>
