<svg width="28" height="28" viewBox="0 0 28 28" fill="none" xmlns="http://www.w3.org/2000/svg">
<path d="M23.333 14.32C23.333 14.763 23.0038 15.1291 22.5767 15.187L22.458 15.195L4.95801 15.195C4.47476 15.195 4.08301 14.8033 4.08301 14.32C4.08301 13.877 4.41219 13.5109 4.83928 13.453L4.95801 13.445L22.458 13.445C22.9413 13.445 23.333 13.8368 23.333 14.32Z" fill="#0E0D5D"/>
<path d="M12.6335 20.7284C12.9759 21.0694 12.9771 21.6234 12.6362 21.9659C12.3262 22.2772 11.8401 22.3065 11.497 22.053L11.3987 21.9685L4.34039 14.9405C4.02815 14.6296 3.99975 14.1418 4.25519 13.7988L4.34034 13.7005L11.3987 6.67132C11.7411 6.33032 12.2951 6.33147 12.6361 6.67388C12.9461 6.98517 12.9733 7.47134 12.7185 7.81336L12.6335 7.91132L6.19818 14.3208L12.6335 20.7284Z" fill="#0E0D5D"/>
</svg>
