<svg width="28" height="28" viewBox="0 0 28 28" fill="none" xmlns="http://www.w3.org/2000/svg">
<path fill-rule="evenodd" clip-rule="evenodd" d="M2.3335 14.0067C2.3335 7.56727 7.56998 2.33331 14.0002 2.33331C20.4303 2.33331 25.6668 7.56727 25.6668 14.0067C25.6668 20.4327 20.4303 25.6666 14.0002 25.6666C7.56998 25.6666 2.3335 20.4327 2.3335 14.0067ZM18.2794 15.1875C18.4033 15.0637 18.561 14.8723 18.5948 14.8273C18.7749 14.5909 18.865 14.2983 18.865 14.0067C18.865 13.6792 18.7637 13.3753 18.5722 13.1277C18.5565 13.112 18.5258 13.0785 18.4858 13.035C18.4109 12.9534 18.3034 12.8364 18.2006 12.7337C17.2772 11.7432 14.8673 10.1223 13.606 9.62709C13.4146 9.54942 12.9303 9.37946 12.6713 9.36821C12.4236 9.36821 12.1871 9.42449 11.9619 9.53704C11.6803 9.69462 11.4551 9.94225 11.3312 10.2349C11.2524 10.4375 11.1285 11.0453 11.1285 11.0566C11.0047 11.7207 10.9371 12.8012 10.9371 13.9944C10.9371 15.1323 11.0047 16.1667 11.106 16.8421C11.1088 16.8449 11.1185 16.8932 11.1335 16.9682C11.1793 17.1963 11.2746 17.6716 11.3763 17.8664C11.624 18.3391 12.1083 18.6318 12.6263 18.6318H12.6713C13.0092 18.6205 13.7186 18.3278 13.7186 18.3166C14.9123 17.8213 17.2659 16.2793 18.2119 15.255L18.2794 15.1875Z" fill="white"/>
</svg>
