<svg width="65" height="43" viewBox="0 0 65 43" fill="none" xmlns="http://www.w3.org/2000/svg">
<g id="calendar">
<path id="Vector" d="M63.6488 37.9431L14.6996 35.2368C13.8074 35.1898 12.9793 34.5111 12.8469 33.7171L10.2089 5.34301C10.0766 4.54476 10.6699 3.89165 11.5407 3.88738L57.2457 3.87885C58.1166 3.88311 58.9618 4.59599 59.124 5.4668L64.9721 36.4747C65.1386 37.3412 64.5452 37.9986 63.6488 37.9431Z" fill="url(#paint0_linear_39_9730)"/>
<path id="Vector_2" d="M49.1738 42.2844L1.36853 39.2323C0.497713 39.181 -0.0444135 38.4127 0.160484 37.5205L9.51322 5.53083C9.71811 4.63014 10.5889 3.89592 11.4597 3.89165L57.169 3.87885C58.0399 3.88311 58.582 4.68563 58.3771 5.66743L51.1203 40.6281C50.9154 41.6099 50.0446 42.3484 49.1738 42.2844Z" fill="url(#paint1_linear_39_9730)"/>
<path id="Vector_3" d="M46.736 37.9773L3.92084 35.3221C3.10552 35.2752 2.59754 34.6093 2.78963 33.8324L9.58968 6.02175C9.78177 5.24057 10.5971 4.60027 11.4124 4.596L54.2275 4.58746C55.0429 4.59173 55.5508 5.28753 55.3587 6.14554L48.5587 36.5387C48.3666 37.3882 47.5513 38.0328 46.736 37.9773Z" fill="url(#paint2_linear_39_9730)"/>
<path id="Vector_4" d="M46.736 37.9773L3.92084 35.3221C3.10552 35.2752 2.59754 34.6093 2.78963 33.8324L9.58968 6.02175C9.78177 5.24057 10.5971 4.60027 11.4124 4.596L54.2275 4.58746C55.0429 4.59173 55.5508 5.28753 55.3587 6.14554L48.5587 36.5387C48.3666 37.3882 47.5513 38.0328 46.736 37.9773Z" fill="url(#paint3_linear_39_9730)"/>
<g id="Group">
<g id="Clip path group">
<mask id="mask0_39_9730" style="mask-type:luminance" maskUnits="userSpaceOnUse" x="0" y="2" width="54" height="33">
<g id="SVGID_00000176027613715760805590000014236265769355613332_">
<path id="Vector_5" d="M44.828 34.4214L1.35122 32.398C0.318197 32.3255 -0.309302 31.2242 0.155987 30.2978C0.194405 30.2253 0.220017 30.1741 0.232823 30.1484C2.47816 26.0932 4.34359 21.7562 5.75653 17.3466C7.13959 13.0224 8.42874 8.52318 8.46716 3.94286C8.47142 3.13607 9.13734 2.4915 9.94413 2.50857L52.0122 3.08485C52.8532 3.10192 53.5063 3.8276 53.4294 4.66427C53.0324 9.03542 52.3537 13.5517 51.342 17.8247C50.3816 21.9013 48.99 25.8627 47.6667 29.8326C47.2526 31.0747 46.766 32.3127 46.2623 33.5335C46.0318 34.1013 45.4512 34.4641 44.828 34.4214Z" fill="white"/>
</g>
</mask>
<g mask="url(#mask0_39_9730)">
<path id="Vector_6" d="M44.828 34.4214L1.35122 32.398C0.318197 32.3255 -0.309302 31.2242 0.155987 30.2978C0.194405 30.2253 0.220017 30.1741 0.232823 30.1484C2.47816 26.0932 4.34359 21.7562 5.75653 17.3466C7.13959 13.0224 8.42874 8.52318 8.46716 3.94286C8.47142 3.13607 9.13734 2.4915 9.94413 2.50857L52.0122 3.08485C52.8532 3.10192 53.5063 3.8276 53.4294 4.66427C53.0324 9.03542 52.3537 13.5517 51.342 17.8247C50.3816 21.9013 48.99 25.8627 47.6667 29.8326C47.2526 31.0747 46.766 32.3127 46.2623 33.5335C46.0318 34.1013 45.4512 34.4641 44.828 34.4214Z" fill="url(#paint4_radial_39_9730)"/>
</g>
</g>
<g id="Clip path group_2">
<mask id="mask1_39_9730" style="mask-type:luminance" maskUnits="userSpaceOnUse" x="0" y="2" width="54" height="33">
<g id="SVGID_00000176027613715760805590000014236265769355613332__2">
<path id="Vector_7" d="M44.828 34.4214L1.35122 32.398C0.318197 32.3255 -0.309302 31.2242 0.155987 30.2978C0.194405 30.2253 0.220017 30.1741 0.232823 30.1484C2.47816 26.0932 4.34359 21.7562 5.75653 17.3466C7.13959 13.0224 8.42874 8.52318 8.46716 3.94286C8.47142 3.13607 9.13734 2.4915 9.94413 2.50857L52.0122 3.08485C52.8532 3.10192 53.5063 3.8276 53.4294 4.66427C53.0324 9.03542 52.3537 13.5517 51.342 17.8247C50.3816 21.9013 48.99 25.8627 47.6667 29.8326C47.2526 31.0747 46.766 32.3127 46.2623 33.5335C46.0318 34.1013 45.4512 34.4641 44.828 34.4214Z" fill="white"/>
</g>
</mask>
<g mask="url(#mask1_39_9730)">
<path id="Vector_8" d="M44.828 34.4214L1.35122 32.398C0.318197 32.3255 -0.309302 31.2242 0.155987 30.2978C0.194405 30.2253 0.220017 30.1741 0.232823 30.1484C2.47816 26.0932 4.34359 21.7562 5.75653 17.3466C7.13959 13.0224 8.42874 8.52318 8.46716 3.94286C8.47142 3.13607 9.13734 2.4915 9.94413 2.50857L52.0122 3.08485C52.8532 3.10192 53.5063 3.8276 53.4294 4.66427C53.0324 9.03542 52.3537 13.5517 51.342 17.8247C50.3816 21.9013 48.99 25.8627 47.6667 29.8326C47.2526 31.0747 46.766 32.3127 46.2623 33.5335C46.0318 34.1013 45.4512 34.4641 44.828 34.4214Z" fill="url(#paint5_linear_39_9730)"/>
</g>
</g>
</g>
<path id="Vector_9" d="M17.9011 13.7396C16.7529 13.7011 15.6088 13.667 14.4606 13.6286C13.9142 13.6115 13.5471 13.206 13.6367 12.7236C13.8245 11.7119 13.9825 10.7002 14.1148 9.69709C14.1788 9.21473 14.6655 8.83908 15.2161 8.86042C16.3644 8.89884 17.5169 8.93299 18.6652 8.97141C19.2159 8.98849 19.6129 9.39401 19.5489 9.87211C19.4123 10.8795 19.25 11.8912 19.0622 12.9029C18.9726 13.381 18.4475 13.7566 17.9011 13.7396ZM27.8003 13.1761C27.9966 12.1644 28.1631 11.1527 28.304 10.1453C28.3723 9.66294 27.9753 9.26168 27.4246 9.24461C26.2763 9.20619 25.1238 9.17204 23.9755 9.13362C23.4248 9.11655 22.9339 9.49219 22.8699 9.97456C22.7333 10.982 22.5668 11.9937 22.3747 13.0053C22.2851 13.4877 22.6437 13.8932 23.1943 13.9146C24.3426 13.953 25.4866 13.9871 26.6349 14.0256C27.1813 14.0384 27.7063 13.6585 27.8003 13.1761ZM36.534 13.4578C36.7347 12.4461 36.9097 11.4345 37.0548 10.427C37.1231 9.94468 36.7304 9.54342 36.1797 9.52207C35.0314 9.48366 33.8789 9.44951 32.7306 9.41109C32.18 9.39401 31.6891 9.76966 31.6208 10.252C31.4799 11.2594 31.3091 12.2711 31.1128 13.2828C31.0189 13.7652 31.3774 14.1707 31.9281 14.192C33.0764 14.2305 34.2204 14.2646 35.3687 14.303C35.9108 14.3201 36.4401 13.9402 36.534 13.4578ZM45.2678 13.7396C45.4727 12.7279 45.652 11.7162 45.8014 10.7088C45.874 10.2264 45.4812 9.82088 44.9306 9.80381C43.7823 9.76539 42.6297 9.73124 41.4815 9.69282C40.9308 9.67575 40.4356 10.0514 40.3673 10.5338C40.2179 11.5412 40.0429 12.5529 39.8423 13.5645C39.7441 14.0469 40.1027 14.4567 40.6533 14.4738C41.8016 14.5122 42.9456 14.5463 44.0939 14.5848C44.6403 14.5976 45.1696 14.2219 45.2678 13.7396ZM16.0058 20.6719C14.8618 20.6335 13.7178 20.5994 12.5781 20.5609C12.0317 20.5439 11.7115 20.1383 11.8524 19.656C12.1512 18.6443 12.4201 17.6326 12.6634 16.6295C12.7787 16.1471 13.308 15.7757 13.8587 15.7928C15.0069 15.8312 16.151 15.8654 17.2992 15.9038C17.8456 15.9209 18.2042 16.3264 18.0847 16.8045C17.8414 17.8119 17.5682 18.8236 17.2651 19.8353C17.1157 20.3134 16.5522 20.689 16.0058 20.6719ZM25.9647 20.1085C26.2721 19.0968 26.5495 18.0851 26.7971 17.0777C26.9166 16.5953 26.5623 16.1941 26.0159 16.177C24.8719 16.1386 23.7236 16.1044 22.5754 16.066C22.029 16.0489 21.4954 16.4246 21.3759 16.9069C21.1283 17.9143 20.8551 18.926 20.552 19.9377C20.4069 20.4201 20.727 20.8256 21.2734 20.847C22.4174 20.8854 23.5614 20.9195 24.7012 20.9579C25.2518 20.9707 25.8196 20.5951 25.9647 20.1085ZM34.6686 20.3902C34.9802 19.3785 35.262 18.3668 35.5181 17.3594C35.6419 16.8771 35.2876 16.4758 34.7412 16.4545C33.5972 16.416 32.4489 16.3819 31.3049 16.3435C30.7585 16.3264 30.2249 16.702 30.1011 17.1844C29.8492 18.1918 29.5675 19.2035 29.2602 20.2152C29.115 20.6975 29.4309 21.1031 29.973 21.1244C31.117 21.1628 32.2568 21.197 33.4008 21.2354C33.9515 21.2525 34.5235 20.8726 34.6686 20.3902ZM43.3725 20.6719C43.6884 19.6603 43.9787 18.6486 44.239 17.6412C44.3628 17.1588 44.0128 16.7533 43.4664 16.7362C42.3224 16.6978 41.1741 16.6636 40.0301 16.6252C39.4837 16.6081 38.9458 16.9838 38.8221 17.4661C38.5659 18.4735 38.2799 19.4852 37.9683 20.4969C37.8189 20.9793 38.1348 21.3891 38.6769 21.4061C39.8209 21.4446 40.9607 21.4787 42.1047 21.5171C42.6511 21.5342 43.2231 21.1543 43.3725 20.6719ZM13.4745 27.4933C12.3347 27.4549 11.195 27.4208 10.0553 27.3823C9.51313 27.3653 9.23139 26.9597 9.42775 26.4774C9.82901 25.4657 10.2047 24.454 10.5547 23.4509C10.7212 22.9685 11.2889 22.5929 11.8353 22.6142C12.9793 22.6526 14.1191 22.6868 15.2631 22.7252C15.8095 22.7423 16.1211 23.1478 15.9546 23.6259C15.6046 24.6333 15.2247 25.645 14.8191 26.6567C14.627 27.1348 14.0209 27.5147 13.4745 27.4933ZM23.4974 26.9341C23.9072 25.9224 24.2914 24.9108 24.65 23.9033C24.8207 23.421 24.5091 23.0197 23.9627 23.0026C22.8187 22.9642 21.6789 22.9301 20.5349 22.8917C19.9885 22.8746 19.4165 23.2502 19.25 23.7326C18.8957 24.74 18.5158 25.7517 18.1103 26.7634C17.9139 27.2457 18.1914 27.6513 18.7335 27.6726C19.8733 27.711 21.013 27.7452 22.1528 27.7836C22.6906 27.7921 23.301 27.4165 23.4974 26.9341ZM32.1714 27.2116C32.5897 26.1999 32.9782 25.1882 33.3368 24.1808C33.5075 23.6984 33.2002 23.2972 32.6538 23.2758C31.5098 23.2374 30.37 23.2033 29.226 23.1649C28.6796 23.1478 28.1076 23.5234 27.9369 24.0058C27.5783 25.0132 27.1941 26.0249 26.78 27.0366C26.5837 27.5189 26.8569 27.9245 27.399 27.9458C28.5387 27.9842 29.6785 28.0184 30.814 28.0568C31.3646 28.0739 31.9751 27.6982 32.1714 27.2116ZM40.8454 27.4933C41.268 26.4816 41.6607 25.47 42.0279 24.4625C42.2029 23.9802 41.8955 23.5747 41.3491 23.5576C40.2051 23.5192 39.0654 23.485 37.9214 23.4466C37.375 23.4295 36.7987 23.8052 36.6279 24.2875C36.2651 25.2949 35.8724 26.3066 35.454 27.3183C35.2534 27.8007 35.5266 28.2105 36.0687 28.2275C37.2085 28.266 38.3482 28.3001 39.4837 28.3385C40.0344 28.3556 40.6448 27.9757 40.8454 27.4933Z" fill="url(#paint6_linear_39_9730)"/>
<g id="Group_2">
<path id="Vector_10" d="M14.7037 3.15734C14.8233 2.98232 14.93 2.79023 15.0452 2.60241C15.0879 2.52984 15.1306 2.46154 15.1605 2.38043C15.1776 2.33348 15.1861 2.28225 15.216 2.23957C15.2928 2.12858 15.4508 2.12431 15.5831 2.13712C16.1167 2.19261 16.2704 2.49142 16.249 3.00367C16.2106 3.88302 15.8691 4.73249 15.2373 5.34718C14.7336 5.83808 14.1147 6.10274 13.4103 6.09421C13.278 6.09421 13.1414 6.0814 13.0219 6.02591C12.7786 5.91492 12.6377 5.64172 12.6377 5.37707C12.6377 4.41661 13.6835 4.07084 14.3025 3.59701C14.4647 3.46895 14.5928 3.31955 14.7037 3.15734Z" fill="url(#paint7_radial_39_9730)"/>
<path id="Vector_11" d="M16.1764 2.26527C16.1465 2.12867 16.1123 1.99207 16.0739 1.85974C16.0014 1.61215 15.9117 1.36884 15.7965 1.13833C15.6044 0.758414 15.3397 0.391305 14.9598 0.17787C14.7207 0.0455402 14.4475 -0.0142232 14.1743 0.00285163C13.1242 0.0626135 12.4669 1.11272 12.2662 2.5342C12.2065 2.93972 12.1894 3.37513 12.2065 3.82334C12.2235 4.21179 12.2705 4.60025 12.3559 4.97589C12.4626 5.43691 12.6163 6.27358 13.2736 6.14979C13.6621 6.07722 13.6706 5.58632 13.5298 5.29605C13.4102 5.04419 13.2608 4.84783 13.2011 4.57037C13.1456 4.30998 13.137 4.04532 13.1456 3.78066C13.1627 3.37086 13.2053 2.93972 13.2822 2.547C13.4401 1.75729 13.7304 1.11699 14.2 1.10418C14.503 1.09564 14.6951 1.32188 14.8104 1.578C14.8829 1.74448 14.9299 1.9195 14.9641 2.09879C14.9939 2.24392 14.9939 2.3976 15.0281 2.54273C15.0324 2.55554 15.0324 2.56408 15.0366 2.57261L16.2532 2.58969C16.2575 2.48724 16.1934 2.34637 16.1764 2.26527Z" fill="url(#paint8_radial_39_9730)"/>
<path id="Vector_12" d="M16.1764 2.26527C16.1465 2.12867 16.1123 1.99207 16.0739 1.85974C16.0014 1.61215 15.9117 1.36884 15.7965 1.13833C15.6044 0.758414 15.3397 0.391305 14.9598 0.17787C14.7207 0.0455402 14.4475 -0.0142232 14.1743 0.00285163C13.1242 0.0626135 12.4669 1.11272 12.2662 2.5342C12.2065 2.93972 12.1894 3.37513 12.2065 3.82334C12.2235 4.21179 12.2705 4.60025 12.3559 4.97589C12.4626 5.43691 12.6163 6.27358 13.2736 6.14979C13.6621 6.07722 13.6706 5.58632 13.5298 5.29605C13.4102 5.04419 13.2608 4.84783 13.2011 4.57037C13.1456 4.30998 13.137 4.04532 13.1456 3.78066C13.1627 3.37086 13.2053 2.93972 13.2822 2.547C13.4401 1.75729 13.7304 1.11699 14.2 1.10418C14.503 1.09564 14.6951 1.32188 14.8104 1.578C14.8829 1.74448 14.9299 1.9195 14.9641 2.09879C14.9939 2.24392 14.9939 2.3976 15.0281 2.54273C15.0324 2.55554 15.0324 2.56408 15.0366 2.57261L16.2532 2.58969C16.2575 2.48724 16.1934 2.34637 16.1764 2.26527Z" fill="url(#paint9_radial_39_9730)"/>
<path id="Vector_13" d="M16.1764 2.26527C16.1465 2.12867 16.1123 1.99207 16.0739 1.85974C16.0014 1.61215 15.9117 1.36884 15.7965 1.13833C15.6044 0.758414 15.3397 0.391305 14.9598 0.17787C14.7207 0.0455402 14.4475 -0.0142232 14.1743 0.00285163C13.1242 0.0626135 12.4669 1.11272 12.2662 2.5342C12.2065 2.93972 12.1894 3.37513 12.2065 3.82334C12.2235 4.21179 12.2705 4.60025 12.3559 4.97589C12.4626 5.43691 12.6163 6.27358 13.2736 6.14979C13.6621 6.07722 13.6706 5.58632 13.5298 5.29605C13.4102 5.04419 13.2608 4.84783 13.2011 4.57037C13.1456 4.30998 13.137 4.04532 13.1456 3.78066C13.1627 3.37086 13.2053 2.93972 13.2822 2.547C13.4401 1.75729 13.7304 1.11699 14.2 1.10418C14.503 1.09564 14.6951 1.32188 14.8104 1.578C14.8829 1.74448 14.9299 1.9195 14.9641 2.09879C14.9939 2.24392 14.9939 2.3976 15.0281 2.54273C15.0324 2.55554 15.0324 2.56408 15.0366 2.57261L16.2532 2.58969C16.2575 2.48724 16.1934 2.34637 16.1764 2.26527Z" fill="url(#paint10_radial_39_9730)"/>
</g>
<g id="Group_3">
<path id="Vector_14" d="M23.2067 3.25988C23.3262 3.08486 23.4329 2.89277 23.5482 2.70495C23.5909 2.63238 23.6335 2.56408 23.6634 2.48297C23.6805 2.43602 23.689 2.38479 23.7189 2.34211C23.7958 2.23112 23.9537 2.22685 24.086 2.23966C24.6196 2.29515 24.7733 2.59396 24.7519 3.1062C24.7135 3.98556 24.372 4.83503 23.7403 5.44972C23.2366 5.94062 22.6176 6.20528 21.9133 6.19675C21.7809 6.19675 21.6443 6.18394 21.5248 6.12845C21.2815 6.01746 21.1406 5.74426 21.1406 5.4796C21.1406 4.51915 22.1865 4.17338 22.8054 3.69955C22.9676 3.57149 23.0957 3.42209 23.2067 3.25988Z" fill="url(#paint11_radial_39_9730)"/>
<path id="Vector_15" d="M24.6842 2.36774C24.6543 2.23114 24.6201 2.09455 24.5817 1.96222C24.5092 1.71463 24.4195 1.47131 24.3043 1.2408C24.1122 0.860889 23.8475 0.493781 23.4676 0.280346C23.2286 0.148016 22.9554 0.0882549 22.6822 0.10533C21.6321 0.165092 20.9747 1.21519 20.774 2.63667C20.7143 3.0422 20.6972 3.47761 20.7143 3.92582C20.7314 4.31427 20.7783 4.70272 20.8637 5.07837C20.9704 5.53939 21.1241 6.37606 21.7815 6.25226C22.1699 6.1797 22.1784 5.6888 22.0376 5.39852C21.9181 5.14667 21.7687 4.95031 21.7089 4.67284C21.6534 4.41245 21.6449 4.14779 21.6534 3.88313C21.6705 3.47334 21.7132 3.0422 21.79 2.64948C21.9479 1.85977 22.2382 1.21946 22.7078 1.20666C23.0108 1.19812 23.2029 1.42436 23.3182 1.68048C23.3908 1.84696 23.4377 2.02198 23.4719 2.20126C23.5017 2.3464 23.5017 2.50007 23.5359 2.64521C23.5402 2.65802 23.5402 2.66655 23.5444 2.67509L24.761 2.69216C24.761 2.58972 24.7013 2.45312 24.6842 2.36774Z" fill="url(#paint12_radial_39_9730)"/>
<path id="Vector_16" d="M24.6842 2.36774C24.6543 2.23114 24.6201 2.09455 24.5817 1.96222C24.5092 1.71463 24.4195 1.47131 24.3043 1.2408C24.1122 0.860889 23.8475 0.493781 23.4676 0.280346C23.2286 0.148016 22.9554 0.0882549 22.6822 0.10533C21.6321 0.165092 20.9747 1.21519 20.774 2.63667C20.7143 3.0422 20.6972 3.47761 20.7143 3.92582C20.7314 4.31427 20.7783 4.70272 20.8637 5.07837C20.9704 5.53939 21.1241 6.37606 21.7815 6.25226C22.1699 6.1797 22.1784 5.6888 22.0376 5.39852C21.9181 5.14667 21.7687 4.95031 21.7089 4.67284C21.6534 4.41245 21.6449 4.14779 21.6534 3.88313C21.6705 3.47334 21.7132 3.0422 21.79 2.64948C21.9479 1.85977 22.2382 1.21946 22.7078 1.20666C23.0108 1.19812 23.2029 1.42436 23.3182 1.68048C23.3908 1.84696 23.4377 2.02198 23.4719 2.20126C23.5017 2.3464 23.5017 2.50007 23.5359 2.64521C23.5402 2.65802 23.5402 2.66655 23.5444 2.67509L24.761 2.69216C24.761 2.58972 24.7013 2.45312 24.6842 2.36774Z" fill="url(#paint13_radial_39_9730)"/>
<path id="Vector_17" d="M24.6842 2.36774C24.6543 2.23114 24.6201 2.09455 24.5817 1.96222C24.5092 1.71463 24.4195 1.47131 24.3043 1.2408C24.1122 0.860889 23.8475 0.493781 23.4676 0.280346C23.2286 0.148016 22.9554 0.0882549 22.6822 0.10533C21.6321 0.165092 20.9747 1.21519 20.774 2.63667C20.7143 3.0422 20.6972 3.47761 20.7143 3.92582C20.7314 4.31427 20.7783 4.70272 20.8637 5.07837C20.9704 5.53939 21.1241 6.37606 21.7815 6.25226C22.1699 6.1797 22.1784 5.6888 22.0376 5.39852C21.9181 5.14667 21.7687 4.95031 21.7089 4.67284C21.6534 4.41245 21.6449 4.14779 21.6534 3.88313C21.6705 3.47334 21.7132 3.0422 21.79 2.64948C21.9479 1.85977 22.2382 1.21946 22.7078 1.20666C23.0108 1.19812 23.2029 1.42436 23.3182 1.68048C23.3908 1.84696 23.4377 2.02198 23.4719 2.20126C23.5017 2.3464 23.5017 2.50007 23.5359 2.64521C23.5402 2.65802 23.5402 2.66655 23.5444 2.67509L24.761 2.69216C24.761 2.58972 24.7013 2.45312 24.6842 2.36774Z" fill="url(#paint14_radial_39_9730)"/>
</g>
<g id="Group_4">
<path id="Vector_18" d="M31.7106 3.36657C31.8301 3.19155 31.9368 2.99946 32.0521 2.81164C32.0948 2.73907 32.1375 2.67077 32.1673 2.58966C32.1844 2.54271 32.1929 2.49148 32.2228 2.4488C32.2997 2.33781 32.4576 2.33354 32.5899 2.34635C33.1235 2.40184 33.2772 2.70065 33.2559 3.21289C33.2174 4.09225 32.8759 4.94172 32.2442 5.55641C31.7405 6.04731 31.1215 6.31197 30.4172 6.30344C30.2848 6.30344 30.1482 6.29063 30.0287 6.23513C29.7854 6.12415 29.6445 5.85095 29.6445 5.58629C29.6445 4.62583 30.6904 4.28007 31.3093 3.80624C31.4758 3.67391 31.5996 3.52451 31.7106 3.36657Z" fill="url(#paint15_radial_39_9730)"/>
<path id="Vector_19" d="M33.1871 2.47443C33.1572 2.33783 33.1231 2.20124 33.0847 2.06891C33.0121 1.82132 32.9225 1.578 32.8072 1.34749C32.6151 0.967579 32.3504 0.60047 31.9705 0.387035C31.7315 0.254705 31.4583 0.194944 31.1851 0.212019C30.135 0.271781 29.4776 1.32188 29.277 2.74336C29.2172 3.14889 29.2001 3.5843 29.2172 4.03251C29.2343 4.42096 29.2812 4.80941 29.3666 5.18506C29.4733 5.64608 29.627 6.48275 30.2844 6.35895C30.6728 6.28639 30.6814 5.79549 30.5405 5.50521C30.421 5.25336 30.2716 5.057 30.2118 4.77953C30.1563 4.51914 30.1478 4.25448 30.1563 3.98982C30.1734 3.58003 30.2161 3.14889 30.2929 2.75617C30.4509 1.96646 30.7411 1.32615 31.2107 1.31334C31.5138 1.30481 31.7059 1.53105 31.8211 1.78717C31.8937 1.95365 31.9406 2.12867 31.9748 2.30795C32.0047 2.45309 32.0047 2.60676 32.0388 2.7519C32.0431 2.7647 32.0431 2.77324 32.0474 2.78178L33.2639 2.79885C33.2682 2.69214 33.2042 2.55554 33.1871 2.47443Z" fill="url(#paint16_radial_39_9730)"/>
<path id="Vector_20" d="M33.1871 2.47443C33.1572 2.33783 33.1231 2.20124 33.0847 2.06891C33.0121 1.82132 32.9225 1.578 32.8072 1.34749C32.6151 0.967579 32.3504 0.60047 31.9705 0.387035C31.7315 0.254705 31.4583 0.194944 31.1851 0.212019C30.135 0.271781 29.4776 1.32188 29.277 2.74336C29.2172 3.14889 29.2001 3.5843 29.2172 4.03251C29.2343 4.42096 29.2812 4.80941 29.3666 5.18506C29.4733 5.64608 29.627 6.48275 30.2844 6.35895C30.6728 6.28639 30.6814 5.79549 30.5405 5.50521C30.421 5.25336 30.2716 5.057 30.2118 4.77953C30.1563 4.51914 30.1478 4.25448 30.1563 3.98982C30.1734 3.58003 30.2161 3.14889 30.2929 2.75617C30.4509 1.96646 30.7411 1.32615 31.2107 1.31334C31.5138 1.30481 31.7059 1.53105 31.8211 1.78717C31.8937 1.95365 31.9406 2.12867 31.9748 2.30795C32.0047 2.45309 32.0047 2.60676 32.0388 2.7519C32.0431 2.7647 32.0431 2.77324 32.0474 2.78178L33.2639 2.79885C33.2682 2.69214 33.2042 2.55554 33.1871 2.47443Z" fill="url(#paint17_radial_39_9730)"/>
<path id="Vector_21" d="M33.1871 2.47443C33.1572 2.33783 33.1231 2.20124 33.0847 2.06891C33.0121 1.82132 32.9225 1.578 32.8072 1.34749C32.6151 0.967579 32.3504 0.60047 31.9705 0.387035C31.7315 0.254705 31.4583 0.194944 31.1851 0.212019C30.135 0.271781 29.4776 1.32188 29.277 2.74336C29.2172 3.14889 29.2001 3.5843 29.2172 4.03251C29.2343 4.42096 29.2812 4.80941 29.3666 5.18506C29.4733 5.64608 29.627 6.48275 30.2844 6.35895C30.6728 6.28639 30.6814 5.79549 30.5405 5.50521C30.421 5.25336 30.2716 5.057 30.2118 4.77953C30.1563 4.51914 30.1478 4.25448 30.1563 3.98982C30.1734 3.58003 30.2161 3.14889 30.2929 2.75617C30.4509 1.96646 30.7411 1.32615 31.2107 1.31334C31.5138 1.30481 31.7059 1.53105 31.8211 1.78717C31.8937 1.95365 31.9406 2.12867 31.9748 2.30795C32.0047 2.45309 32.0047 2.60676 32.0388 2.7519C32.0431 2.7647 32.0431 2.77324 32.0474 2.78178L33.2639 2.79885C33.2682 2.69214 33.2042 2.55554 33.1871 2.47443Z" fill="url(#paint18_radial_39_9730)"/>
</g>
<g id="Group_5">
<path id="Vector_22" d="M40.2184 3.4904C40.3379 3.31539 40.4446 3.1233 40.5599 2.93547C40.6026 2.86291 40.6453 2.79461 40.6751 2.7135C40.6922 2.66654 40.7008 2.61532 40.7306 2.57263C40.8075 2.46165 40.9654 2.45738 41.0977 2.47019C41.6313 2.52568 41.785 2.82449 41.7637 3.33673C41.7252 4.21609 41.3838 5.06556 40.752 5.68025C40.2483 6.17115 39.6293 6.43581 38.925 6.42727C38.7926 6.42727 38.6561 6.41447 38.5365 6.35898C38.2932 6.24799 38.1523 5.97479 38.1523 5.71013C38.1523 4.74967 39.1982 4.40391 39.8171 3.93008C39.9793 3.80202 40.1074 3.65262 40.2184 3.4904Z" fill="url(#paint19_radial_39_9730)"/>
<path id="Vector_23" d="M41.691 2.59821C41.6611 2.46161 41.627 2.32502 41.5886 2.19269C41.516 1.9451 41.4264 1.70178 41.3111 1.47127C41.119 1.09136 40.8543 0.72425 40.4744 0.510814C40.2354 0.378485 39.9622 0.318724 39.689 0.335798C38.6389 0.39556 37.9815 1.44566 37.7809 2.86714C37.7211 3.27267 37.704 3.70808 37.7211 4.15629C37.7382 4.54474 37.7852 4.93319 37.8705 5.30884C37.9772 5.76986 38.1309 6.60653 38.7883 6.48273C39.1767 6.41017 39.1853 5.91926 39.0444 5.62899C38.9249 5.37714 38.7755 5.18078 38.7157 4.90331C38.6602 4.64292 38.6517 4.37826 38.6602 4.1136C38.6773 3.70381 38.72 3.27267 38.7968 2.87995C38.9548 2.09024 39.245 1.44993 39.7146 1.43712C40.0177 1.42859 40.2098 1.65483 40.325 1.91095C40.3976 2.07743 40.4446 2.25245 40.4787 2.43173C40.5086 2.57687 40.5086 2.73054 40.5427 2.87568C40.547 2.88848 40.547 2.89702 40.5513 2.90556L41.7678 2.92263C41.7721 2.82018 41.7124 2.67932 41.691 2.59821Z" fill="url(#paint20_radial_39_9730)"/>
<path id="Vector_24" d="M41.691 2.59821C41.6611 2.46161 41.627 2.32502 41.5886 2.19269C41.516 1.9451 41.4264 1.70178 41.3111 1.47127C41.119 1.09136 40.8543 0.72425 40.4744 0.510814C40.2354 0.378485 39.9622 0.318724 39.689 0.335798C38.6389 0.39556 37.9815 1.44566 37.7809 2.86714C37.7211 3.27267 37.704 3.70808 37.7211 4.15629C37.7382 4.54474 37.7852 4.93319 37.8705 5.30884C37.9772 5.76986 38.1309 6.60653 38.7883 6.48273C39.1767 6.41017 39.1853 5.91926 39.0444 5.62899C38.9249 5.37714 38.7755 5.18078 38.7157 4.90331C38.6602 4.64292 38.6517 4.37826 38.6602 4.1136C38.6773 3.70381 38.72 3.27267 38.7968 2.87995C38.9548 2.09024 39.245 1.44993 39.7146 1.43712C40.0177 1.42859 40.2098 1.65483 40.325 1.91095C40.3976 2.07743 40.4446 2.25245 40.4787 2.43173C40.5086 2.57687 40.5086 2.73054 40.5427 2.87568C40.547 2.88848 40.547 2.89702 40.5513 2.90556L41.7678 2.92263C41.7721 2.82018 41.7124 2.67932 41.691 2.59821Z" fill="url(#paint21_radial_39_9730)"/>
<path id="Vector_25" d="M41.691 2.59821C41.6611 2.46161 41.627 2.32502 41.5886 2.19269C41.516 1.9451 41.4264 1.70178 41.3111 1.47127C41.119 1.09136 40.8543 0.72425 40.4744 0.510814C40.2354 0.378485 39.9622 0.318724 39.689 0.335798C38.6389 0.39556 37.9815 1.44566 37.7809 2.86714C37.7211 3.27267 37.704 3.70808 37.7211 4.15629C37.7382 4.54474 37.7852 4.93319 37.8705 5.30884C37.9772 5.76986 38.1309 6.60653 38.7883 6.48273C39.1767 6.41017 39.1853 5.91926 39.0444 5.62899C38.9249 5.37714 38.7755 5.18078 38.7157 4.90331C38.6602 4.64292 38.6517 4.37826 38.6602 4.1136C38.6773 3.70381 38.72 3.27267 38.7968 2.87995C38.9548 2.09024 39.245 1.44993 39.7146 1.43712C40.0177 1.42859 40.2098 1.65483 40.325 1.91095C40.3976 2.07743 40.4446 2.25245 40.4787 2.43173C40.5086 2.57687 40.5086 2.73054 40.5427 2.87568C40.547 2.88848 40.547 2.89702 40.5513 2.90556L41.7678 2.92263C41.7721 2.82018 41.7124 2.67932 41.691 2.59821Z" fill="url(#paint22_radial_39_9730)"/>
</g>
<g id="Group_6">
<path id="Vector_26" d="M48.7204 3.62694C48.8399 3.45193 48.9466 3.25983 49.0618 3.07201C49.1045 2.99944 49.1472 2.93114 49.1771 2.85004C49.1942 2.80308 49.2027 2.75186 49.2326 2.70917C49.3094 2.59818 49.4674 2.59391 49.5997 2.60672C50.1333 2.66221 50.287 2.96103 50.2656 3.47327C50.2272 4.35262 49.8857 5.20209 49.2539 5.81679C48.7502 6.30769 48.1313 6.57235 47.4269 6.56381C47.2946 6.56381 47.158 6.55101 47.0385 6.49551C46.7952 6.38453 46.6543 6.11133 46.6543 5.84667C46.6543 4.88621 47.7001 4.54045 48.3191 4.06662C48.4813 3.93429 48.6094 3.78488 48.7204 3.62694Z" fill="url(#paint23_radial_39_9730)"/>
<path id="Vector_27" d="M50.1979 2.73481C50.168 2.59821 50.1338 2.46161 50.0954 2.32928C50.0228 2.0817 49.9332 1.83838 49.8179 1.60787C49.6258 1.22796 49.3612 0.860849 48.9813 0.647414C48.7422 0.515084 48.469 0.45532 48.1958 0.472395C47.1457 0.532157 46.4883 1.58226 46.2877 3.00374C46.228 3.40927 46.2109 3.84467 46.228 4.29289C46.245 4.68134 46.292 5.06979 46.3774 5.44544C46.4841 5.90646 46.6378 6.74312 47.2951 6.61933C47.6836 6.54676 47.6921 6.05586 47.5513 5.76559C47.4317 5.51374 47.2823 5.31738 47.2226 5.03991C47.1671 4.77952 47.1585 4.51486 47.1671 4.2502C47.1841 3.8404 47.2268 3.40927 47.3037 3.01654C47.4616 2.22683 47.7519 1.58653 48.2214 1.57372C48.5245 1.56519 48.7166 1.79143 48.8319 2.04755C48.9044 2.21403 48.9514 2.38905 48.9855 2.56833C49.0154 2.71347 49.0154 2.86714 49.0496 3.01227C49.0538 3.02508 49.0538 3.03362 49.0581 3.04216L50.2747 3.05923C50.279 2.95251 50.2149 2.81591 50.1979 2.73481Z" fill="url(#paint24_radial_39_9730)"/>
<path id="Vector_28" d="M50.1979 2.73481C50.168 2.59821 50.1338 2.46161 50.0954 2.32928C50.0228 2.0817 49.9332 1.83838 49.8179 1.60787C49.6258 1.22796 49.3612 0.860849 48.9813 0.647414C48.7422 0.515084 48.469 0.45532 48.1958 0.472395C47.1457 0.532157 46.4883 1.58226 46.2877 3.00374C46.228 3.40927 46.2109 3.84467 46.228 4.29289C46.245 4.68134 46.292 5.06979 46.3774 5.44544C46.4841 5.90646 46.6378 6.74312 47.2951 6.61933C47.6836 6.54676 47.6921 6.05586 47.5513 5.76559C47.4317 5.51374 47.2823 5.31738 47.2226 5.03991C47.1671 4.77952 47.1585 4.51486 47.1671 4.2502C47.1841 3.8404 47.2268 3.40927 47.3037 3.01654C47.4616 2.22683 47.7519 1.58653 48.2214 1.57372C48.5245 1.56519 48.7166 1.79143 48.8319 2.04755C48.9044 2.21403 48.9514 2.38905 48.9855 2.56833C49.0154 2.71347 49.0154 2.86714 49.0496 3.01227C49.0538 3.02508 49.0538 3.03362 49.0581 3.04216L50.2747 3.05923C50.279 2.95251 50.2149 2.81591 50.1979 2.73481Z" fill="url(#paint25_radial_39_9730)"/>
<path id="Vector_29" d="M50.1979 2.73481C50.168 2.59821 50.1338 2.46161 50.0954 2.32928C50.0228 2.0817 49.9332 1.83838 49.8179 1.60787C49.6258 1.22796 49.3612 0.860849 48.9813 0.647414C48.7422 0.515084 48.469 0.45532 48.1958 0.472395C47.1457 0.532157 46.4883 1.58226 46.2877 3.00374C46.228 3.40927 46.2109 3.84467 46.228 4.29289C46.245 4.68134 46.292 5.06979 46.3774 5.44544C46.4841 5.90646 46.6378 6.74312 47.2951 6.61933C47.6836 6.54676 47.6921 6.05586 47.5513 5.76559C47.4317 5.51374 47.2823 5.31738 47.2226 5.03991C47.1671 4.77952 47.1585 4.51486 47.1671 4.2502C47.1841 3.8404 47.2268 3.40927 47.3037 3.01654C47.4616 2.22683 47.7519 1.58653 48.2214 1.57372C48.5245 1.56519 48.7166 1.79143 48.8319 2.04755C48.9044 2.21403 48.9514 2.38905 48.9855 2.56833C49.0154 2.71347 49.0154 2.86714 49.0496 3.01227C49.0538 3.02508 49.0538 3.03362 49.0581 3.04216L50.2747 3.05923C50.279 2.95251 50.2149 2.81591 50.1979 2.73481Z" fill="url(#paint26_radial_39_9730)"/>
</g>
<path id="Vector_30" d="M17.901 13.7396C16.7527 13.7011 15.6087 13.667 14.4604 13.6286C13.914 13.6115 13.5469 13.206 13.6365 12.7236C13.8243 11.7119 13.9823 10.7002 14.1146 9.69709C14.1786 9.21473 14.6653 8.83908 15.2159 8.86042C16.3642 8.89884 17.5168 8.93299 18.6651 8.97141C19.2157 8.98849 19.6127 9.39401 19.5487 9.87211C19.4121 10.8795 19.2499 11.8912 19.062 12.9029C18.9724 13.381 18.4473 13.7566 17.901 13.7396ZM34.6684 20.3902C34.98 19.3785 35.2618 18.3668 35.5179 17.3594C35.6417 16.8771 35.2874 16.4758 34.741 16.4545C33.597 16.416 32.4487 16.3819 31.3047 16.3435C30.7583 16.3264 30.2247 16.702 30.1009 17.1844C29.8491 18.1918 29.5673 19.2035 29.26 20.2152C29.1148 20.6975 29.4307 21.1031 29.9729 21.1244C31.1169 21.1628 32.2566 21.197 33.4006 21.2354C33.9513 21.2525 34.5233 20.8726 34.6684 20.3902Z" fill="url(#paint27_linear_39_9730)"/>
</g>
<defs>
<linearGradient id="paint0_linear_39_9730" x1="7.33949" y1="14.7081" x2="64.4587" y2="5.19128" gradientUnits="userSpaceOnUse">
<stop stop-color="#B3C4F8"/>
<stop offset="0.1785" stop-color="#475BA9"/>
<stop offset="0.2574" stop-color="#475BA9"/>
<stop offset="0.8303" stop-color="#475BA9"/>
<stop offset="0.8501" stop-color="#495DAC"/>
<stop offset="0.8656" stop-color="#4E63B6"/>
<stop offset="0.8795" stop-color="#566EC6"/>
<stop offset="0.8925" stop-color="#627CDE"/>
<stop offset="0.9005" stop-color="#6C88F0"/>
<stop offset="1" stop-color="#8D8AFF"/>
</linearGradient>
<linearGradient id="paint1_linear_39_9730" x1="1.94129" y1="16.6237" x2="58.7025" y2="27.8596" gradientUnits="userSpaceOnUse">
<stop stop-color="#B3C4F8"/>
<stop offset="0.1785" stop-color="#475BA9"/>
<stop offset="0.2574" stop-color="#475BA9"/>
<stop offset="0.8303" stop-color="#475BA9"/>
<stop offset="0.8501" stop-color="#495DAC"/>
<stop offset="0.8656" stop-color="#4E63B6"/>
<stop offset="0.8795" stop-color="#566EC6"/>
<stop offset="0.8925" stop-color="#627CDE"/>
<stop offset="0.9005" stop-color="#6C88F0"/>
<stop offset="1" stop-color="#8D8AFF"/>
</linearGradient>
<linearGradient id="paint2_linear_39_9730" x1="4.28595" y1="15.4812" x2="55.7704" y2="25.6725" gradientUnits="userSpaceOnUse">
<stop stop-color="#A6BBBE"/>
<stop offset="0.057898" stop-color="#ECFCFF"/>
<stop offset="0.0860401" stop-color="#DEEEF1"/>
<stop offset="0.167" stop-color="#BDCCCF"/>
<stop offset="0.2535" stop-color="#A1B0B3"/>
<stop offset="0.3462" stop-color="#8C9A9D"/>
<stop offset="0.4478" stop-color="#7D8B8E"/>
<stop offset="0.5652" stop-color="#748285"/>
<stop offset="0.735" stop-color="#717F82"/>
<stop offset="0.7777" stop-color="#748285"/>
<stop offset="0.8109" stop-color="#7C8C8F"/>
<stop offset="0.8409" stop-color="#8A9C9F"/>
<stop offset="0.869" stop-color="#9FB4B6"/>
<stop offset="0.8955" stop-color="#B8D2D3"/>
<stop offset="0.9005" stop-color="#BED8D9"/>
<stop offset="1" stop-color="#A6BBBE"/>
</linearGradient>
<linearGradient id="paint3_linear_39_9730" x1="30.1563" y1="3.29455" x2="27.9719" y2="36.941" gradientUnits="userSpaceOnUse">
<stop stop-color="#F3F8FB"/>
<stop offset="0.034754" stop-color="#DCEAED"/>
<stop offset="0.0647984" stop-color="#C4DFE0"/>
<stop offset="0.8431" stop-color="#C1DADB"/>
<stop offset="0.9019" stop-color="#E7F1F1"/>
<stop offset="0.9458" stop-color="white"/>
<stop offset="1" stop-color="#A6BBBE"/>
</linearGradient>
<radialGradient id="paint4_radial_39_9730" cx="0" cy="0" r="1" gradientUnits="userSpaceOnUse" gradientTransform="translate(-23.4644 2.01861) scale(77.1234 77.1234)">
<stop offset="0.4092" stop-color="#F3F8FB"/>
<stop offset="0.4737" stop-color="#DCEAED"/>
<stop offset="0.9663" stop-color="#ECFCFF"/>
<stop offset="0.9796" stop-color="#BED8D9"/>
<stop offset="0.9984" stop-color="#A6BBBE"/>
</radialGradient>
<linearGradient id="paint5_linear_39_9730" x1="27.2525" y1="2.50169" x2="26.1773" y2="33.3848" gradientUnits="userSpaceOnUse">
<stop stop-color="#F3F8FB"/>
<stop offset="0.034754" stop-color="#DCEAED"/>
<stop offset="0.0647984" stop-color="#C4DFE0"/>
<stop offset="0.5012" stop-color="#C1DADB"/>
<stop offset="0.7535" stop-color="#E7F1F1"/>
<stop offset="0.9417" stop-color="white"/>
<stop offset="1" stop-color="#A6BBBE"/>
</linearGradient>
<linearGradient id="paint6_linear_39_9730" x1="27.1005" y1="8.05437" x2="26.5285" y2="28.9318" gradientUnits="userSpaceOnUse">
<stop offset="0.050575" stop-color="#BED8D9"/>
<stop offset="0.0867826" stop-color="#B1C8CA"/>
<stop offset="0.1277" stop-color="#A9BEC1"/>
<stop offset="0.1801" stop-color="#A6BBBE"/>
<stop offset="0.2146" stop-color="#A3B7BA"/>
<stop offset="0.2459" stop-color="#99ACAF"/>
<stop offset="0.2759" stop-color="#899A9D"/>
<stop offset="0.305" stop-color="#728083"/>
<stop offset="0.3062" stop-color="#717F82"/>
<stop offset="0.3917" stop-color="#BED8D9"/>
<stop offset="0.4223" stop-color="#B3CACC"/>
<stop offset="0.4643" stop-color="#A9BFC2"/>
<stop offset="0.5078" stop-color="#A6BBBE"/>
<stop offset="0.5505" stop-color="#A4B8BB"/>
<stop offset="0.5764" stop-color="#9CB0B3"/>
<stop offset="0.5977" stop-color="#90A2A5"/>
<stop offset="0.6165" stop-color="#7E8E91"/>
<stop offset="0.6267" stop-color="#717F82"/>
<stop offset="0.7191" stop-color="#BED8D9"/>
<stop offset="0.7427" stop-color="#B7CFD1"/>
<stop offset="0.796" stop-color="#AAC0C3"/>
<stop offset="0.8398" stop-color="#A6BBBE"/>
<stop offset="0.8862" stop-color="#A4B9BC"/>
<stop offset="0.9094" stop-color="#9DB1B4"/>
<stop offset="0.9273" stop-color="#92A4A7"/>
<stop offset="0.9426" stop-color="#819194"/>
<stop offset="0.9533" stop-color="#717F82"/>
</linearGradient>
<radialGradient id="paint7_radial_39_9730" cx="0" cy="0" r="1" gradientUnits="userSpaceOnUse" gradientTransform="translate(11.6033 1.93395) rotate(8.68399) scale(4.80008 4.79349)">
<stop offset="0.7374" stop-color="#A6BEB4"/>
<stop offset="0.8536" stop-color="#A6BEB4"/>
<stop offset="0.9774" stop-color="#A6BEB4"/>
</radialGradient>
<radialGradient id="paint8_radial_39_9730" cx="0" cy="0" r="1" gradientUnits="userSpaceOnUse" gradientTransform="translate(20.1662 3.46589) scale(8.74314 8.74314)">
<stop offset="0.8828" stop-color="#4C45A9"/>
<stop offset="0.9368" stop-color="#AD8AFF"/>
<stop offset="0.9727" stop-color="#D8C7FC"/>
</radialGradient>
<radialGradient id="paint9_radial_39_9730" cx="0" cy="0" r="1" gradientUnits="userSpaceOnUse" gradientTransform="translate(15.3917 2.59951) scale(2.73397 2.73397)">
<stop stop-color="#2B27E5"/>
<stop offset="0.9189" stop-color="#AD8AFF"/>
</radialGradient>
<radialGradient id="paint10_radial_39_9730" cx="0" cy="0" r="1" gradientUnits="userSpaceOnUse" gradientTransform="translate(14.2058 -0.0370948) scale(2.73396 2.73396)">
<stop stop-color="#898DF0"/>
<stop offset="1" stop-color="#4C45A9"/>
</radialGradient>
<radialGradient id="paint11_radial_39_9730" cx="0" cy="0" r="1" gradientUnits="userSpaceOnUse" gradientTransform="translate(20.1078 2.03766) rotate(8.68399) scale(4.80008 4.79349)">
<stop offset="0.7374" stop-color="#A6BEB4"/>
<stop offset="0.8536" stop-color="#A6BEB4"/>
<stop offset="0.9774" stop-color="#A6BEB4"/>
</radialGradient>
<radialGradient id="paint12_radial_39_9730" cx="0" cy="0" r="1" gradientUnits="userSpaceOnUse" gradientTransform="translate(28.6714 3.56954) scale(8.74314 8.74314)">
<stop offset="0.8828" stop-color="#4C45A9"/>
<stop offset="0.9368" stop-color="#AD8AFF"/>
<stop offset="0.9727" stop-color="#D8C7FC"/>
</radialGradient>
<radialGradient id="paint13_radial_39_9730" cx="0" cy="0" r="1" gradientUnits="userSpaceOnUse" gradientTransform="translate(23.8969 2.70317) scale(2.73397)">
<stop stop-color="#2B27E5"/>
<stop offset="0.9189" stop-color="#AD8AFF"/>
</radialGradient>
<radialGradient id="paint14_radial_39_9730" cx="0" cy="0" r="1" gradientUnits="userSpaceOnUse" gradientTransform="translate(22.711 0.0665571) scale(2.73396)">
<stop stop-color="#898DF0"/>
<stop offset="1" stop-color="#4C45A9"/>
</radialGradient>
<radialGradient id="paint15_radial_39_9730" cx="0" cy="0" r="1" gradientUnits="userSpaceOnUse" gradientTransform="translate(28.6134 2.14125) rotate(8.68399) scale(4.80008 4.79349)">
<stop offset="0.7374" stop-color="#A6BEB4"/>
<stop offset="0.8536" stop-color="#A6BEB4"/>
<stop offset="0.9774" stop-color="#A6BEB4"/>
</radialGradient>
<radialGradient id="paint16_radial_39_9730" cx="0" cy="0" r="1" gradientUnits="userSpaceOnUse" gradientTransform="translate(37.1759 3.67314) scale(8.74315 8.74315)">
<stop offset="0.8828" stop-color="#4C45A9"/>
<stop offset="0.9368" stop-color="#AD8AFF"/>
<stop offset="0.9727" stop-color="#D8C7FC"/>
</radialGradient>
<radialGradient id="paint17_radial_39_9730" cx="0" cy="0" r="1" gradientUnits="userSpaceOnUse" gradientTransform="translate(32.4014 2.80676) scale(2.73397 2.73397)">
<stop stop-color="#2B27E5"/>
<stop offset="0.9189" stop-color="#AD8AFF"/>
</radialGradient>
<radialGradient id="paint18_radial_39_9730" cx="0" cy="0" r="1" gradientUnits="userSpaceOnUse" gradientTransform="translate(31.2155 0.170152) scale(2.73396 2.73396)">
<stop stop-color="#898DF0"/>
<stop offset="1" stop-color="#4C45A9"/>
</radialGradient>
<radialGradient id="paint19_radial_39_9730" cx="0" cy="0" r="1" gradientUnits="userSpaceOnUse" gradientTransform="translate(37.1185 2.2679) rotate(8.68399) scale(4.80008 4.79348)">
<stop offset="0.7374" stop-color="#A6BEB4"/>
<stop offset="0.8536" stop-color="#A6BEB4"/>
<stop offset="0.9774" stop-color="#A6BEB4"/>
</radialGradient>
<radialGradient id="paint20_radial_39_9730" cx="0" cy="0" r="1" gradientUnits="userSpaceOnUse" gradientTransform="translate(45.6815 3.79972) scale(8.74314 8.74314)">
<stop offset="0.8828" stop-color="#4C45A9"/>
<stop offset="0.9368" stop-color="#AD8AFF"/>
<stop offset="0.9727" stop-color="#D8C7FC"/>
</radialGradient>
<radialGradient id="paint21_radial_39_9730" cx="0" cy="0" r="1" gradientUnits="userSpaceOnUse" gradientTransform="translate(40.907 2.93334) scale(2.73397 2.73397)">
<stop stop-color="#2B27E5"/>
<stop offset="0.9189" stop-color="#AD8AFF"/>
</radialGradient>
<radialGradient id="paint22_radial_39_9730" cx="0" cy="0" r="1" gradientUnits="userSpaceOnUse" gradientTransform="translate(39.7211 0.296736) scale(2.73396 2.73396)">
<stop stop-color="#898DF0"/>
<stop offset="1" stop-color="#4C45A9"/>
</radialGradient>
<radialGradient id="paint23_radial_39_9730" cx="0" cy="0" r="1" gradientUnits="userSpaceOnUse" gradientTransform="translate(45.6221 2.40211) rotate(8.68399) scale(4.80008 4.79349)">
<stop offset="0.7374" stop-color="#A6BEB4"/>
<stop offset="0.8536" stop-color="#A6BEB4"/>
<stop offset="0.9774" stop-color="#A6BEB4"/>
</radialGradient>
<radialGradient id="paint24_radial_39_9730" cx="0" cy="0" r="1" gradientUnits="userSpaceOnUse" gradientTransform="translate(54.1857 3.93399) scale(8.74315 8.74315)">
<stop offset="0.8828" stop-color="#4C45A9"/>
<stop offset="0.9368" stop-color="#AD8AFF"/>
<stop offset="0.9727" stop-color="#D8C7FC"/>
</radialGradient>
<radialGradient id="paint25_radial_39_9730" cx="0" cy="0" r="1" gradientUnits="userSpaceOnUse" gradientTransform="translate(49.4112 3.06761) scale(2.73397 2.73397)">
<stop stop-color="#2B27E5"/>
<stop offset="0.9189" stop-color="#AD8AFF"/>
</radialGradient>
<radialGradient id="paint26_radial_39_9730" cx="0" cy="0" r="1" gradientUnits="userSpaceOnUse" gradientTransform="translate(48.2253 0.431002) scale(2.73396 2.73396)">
<stop stop-color="#898DF0"/>
<stop offset="1" stop-color="#4C45A9"/>
</radialGradient>
<linearGradient id="paint27_linear_39_9730" x1="24.945" y1="2.39902" x2="24.4126" y2="20.9484" gradientUnits="userSpaceOnUse">
<stop offset="0.3559" stop-color="#F29E50"/>
<stop offset="0.3945" stop-color="#F68C48"/>
<stop offset="0.4403" stop-color="#FA7E41"/>
<stop offset="0.4793" stop-color="#FB793F"/>
<stop offset="0.5288" stop-color="#FA753D"/>
<stop offset="0.5727" stop-color="#F66B36"/>
<stop offset="0.6137" stop-color="#F0592A"/>
<stop offset="0.6194" stop-color="#F05C2C"/>
<stop offset="0.7004" stop-color="#F18A44"/>
<stop offset="0.7413" stop-color="#F29B4E"/>
<stop offset="0.7415" stop-color="#F29B4E"/>
<stop offset="0.7769" stop-color="#F78846"/>
<stop offset="0.8134" stop-color="#FA7D41"/>
<stop offset="0.8524" stop-color="#FB793F"/>
<stop offset="0.905" stop-color="#F9743C"/>
<stop offset="0.9696" stop-color="#F46532"/>
<stop offset="1" stop-color="#F15B2C"/>
</linearGradient>
</defs>
</svg>
