<svg width="24" height="24" viewBox="0 0 24 24" fill="none" xmlns="http://www.w3.org/2000/svg">
<path opacity="0.4" d="M16.34 1.99979H7.67C4.28 1.99979 2 4.37979 2 7.91979V16.0898C2 19.6198 4.28 21.9998 7.67 21.9998H16.34C19.73 21.9998 22 19.6198 22 16.0898V7.91979C22 4.37979 19.73 1.99979 16.34 1.99979Z" fill="#212121"/>
<path d="M15.0163 13.7703L13.2373 11.9923L15.0153 10.2143C15.3573 9.87329 15.3573 9.31829 15.0153 8.97729C14.6733 8.63329 14.1203 8.63429 13.7783 8.97629L11.9993 10.7543L10.2203 8.97429C9.87831 8.63229 9.32431 8.63429 8.98231 8.97429C8.64131 9.31629 8.64131 9.87129 8.98231 10.2123L10.7623 11.9923L8.98631 13.7673C8.64431 14.1093 8.64431 14.6643 8.98631 15.0043C9.15731 15.1763 9.38031 15.2613 9.60431 15.2613C9.82931 15.2613 10.0523 15.1763 10.2233 15.0053L11.9993 13.2293L13.7793 15.0083C13.9503 15.1793 14.1733 15.2643 14.3973 15.2643C14.6213 15.2643 14.8453 15.1783 15.0163 15.0083C15.3583 14.6663 15.3583 14.1123 15.0163 13.7703Z" fill="#212121"/>
</svg>
