<svg width="18" height="19" viewBox="0 0 18 19" fill="none" xmlns="http://www.w3.org/2000/svg">
<path d="M9 17.5625C4.5525 17.5625 0.9375 13.9475 0.9375 9.5C0.9375 5.0525 4.5525 1.4375 9 1.4375C13.4475 1.4375 17.0625 5.0525 17.0625 9.5C17.0625 13.9475 13.4475 17.5625 9 17.5625ZM9 2.5625C5.175 2.5625 2.0625 5.675 2.0625 9.5C2.0625 13.325 5.175 16.4375 9 16.4375C12.825 16.4375 15.9375 13.325 15.9375 9.5C15.9375 5.675 12.825 2.5625 9 2.5625Z" fill="#292D32"/>
<path d="M6.87703 12.185C6.73453 12.185 6.59203 12.1325 6.47953 12.02C6.26203 11.8025 6.26203 11.4425 6.47953 11.225L10.7245 6.98002C10.942 6.76252 11.302 6.76252 11.5195 6.98002C11.737 7.19752 11.737 7.55752 11.5195 7.77502L7.27453 12.02C7.16953 12.1325 7.01953 12.185 6.87703 12.185Z" fill="#292D32"/>
<path d="M11.122 12.185C10.9795 12.185 10.837 12.1325 10.7245 12.02L6.47953 7.77502C6.26203 7.55752 6.26203 7.19752 6.47953 6.98002C6.69703 6.76252 7.05703 6.76252 7.27453 6.98002L11.5195 11.225C11.737 11.4425 11.737 11.8025 11.5195 12.02C11.407 12.1325 11.2645 12.185 11.122 12.185Z" fill="#292D32"/>
</svg>
