<svg width="22" height="24" viewBox="0 0 22 24" fill="none" xmlns="http://www.w3.org/2000/svg">
<g id="Delete">
<path id="Stroke 1" d="M19.5454 9.0459C19.5454 9.0459 18.9119 16.9034 18.5444 20.2132C18.3694 21.7941 17.3929 22.7204 15.7934 22.7496C12.7496 22.8044 9.70226 22.8079 6.65959 22.7437C5.12076 22.7122 4.16059 21.7742 3.98909 20.2214C3.61926 16.8824 2.98926 9.0459 2.98926 9.0459" stroke="#F54336" stroke-width="1.5" stroke-linecap="round" stroke-linejoin="round"/>
<path id="Stroke 3" d="M21.1593 5.27962H1.375" stroke="#F54336" stroke-width="1.5" stroke-linecap="round" stroke-linejoin="round"/>
<path id="Stroke 5" d="M17.3472 5.27948C16.4313 5.27948 15.6427 4.63198 15.463 3.73482L15.1795 2.31615C15.0045 1.66165 14.4118 1.20898 13.7363 1.20898H8.79784C8.12234 1.20898 7.52968 1.66165 7.35468 2.31615L7.07118 3.73482C6.89151 4.63198 6.10284 5.27948 5.18701 5.27948" stroke="#F54336" stroke-width="1.5" stroke-linecap="round" stroke-linejoin="round"/>
</g>
</svg>
