<svg width="56" height="56" viewBox="0 0 56 56" fill="none" xmlns="http://www.w3.org/2000/svg">
<g id=" reactions / sad">
<path id="icon" fill-rule="evenodd" clip-rule="evenodd" d="M27.9997 53.6663C13.8244 53.6663 2.33301 42.175 2.33301 27.9997C2.33301 13.8244 13.8244 2.33301 27.9997 2.33301C42.175 2.33301 53.6663 13.8244 53.6663 27.9997C53.6663 42.175 42.175 53.6663 27.9997 53.6663ZM27.9997 48.9997C39.5977 48.9997 48.9997 39.5977 48.9997 27.9997C48.9997 16.4017 39.5977 6.99967 27.9997 6.99967C16.4017 6.99967 6.99967 16.4017 6.99967 27.9997C6.99967 39.5977 16.4017 48.9997 27.9997 48.9997ZM27.9997 38.0279C31.0785 38.0279 33.9014 39.5269 35.6405 41.9997L39.4577 39.315C36.8536 35.6125 32.614 33.3613 27.9997 33.3613C23.3854 33.3613 19.1457 35.6125 16.5417 39.315L20.3588 41.9997C22.098 39.5269 24.9208 38.0279 27.9997 38.0279ZM32.6663 27.9997V23.333H37.333V27.9997H32.6663ZM18.6663 23.333V27.9997H23.333V23.333H18.6663Z" fill="white"/>
</g>
</svg>
