<svg width="22" height="24" viewBox="0 0 22 24" fill="none" xmlns="http://www.w3.org/2000/svg">
<g id="Document">
<path id="Document_2" fill-rule="evenodd" clip-rule="evenodd" d="M6.11167 0.333008H15.8895C19.4933 0.333008 21.5 2.40967 21.5 5.96801V18.0197C21.5 21.6363 19.4933 23.6663 15.8895 23.6663H6.11167C2.565 23.6663 0.5 21.6363 0.5 18.0197V5.96801C0.5 2.40967 2.565 0.333008 6.11167 0.333008ZM6.42667 5.76967V5.75801H9.91383C10.4167 5.75801 10.825 6.16634 10.825 6.66684C10.825 7.18134 10.4167 7.58967 9.91383 7.58967H6.42667C5.92383 7.58967 5.51667 7.18134 5.51667 6.67968C5.51667 6.17801 5.92383 5.76967 6.42667 5.76967ZM6.42667 12.863H15.5733C16.075 12.863 16.4833 12.4547 16.4833 11.953C16.4833 11.4513 16.075 11.0418 15.5733 11.0418H6.42667C5.92383 11.0418 5.51667 11.4513 5.51667 11.953C5.51667 12.4547 5.92383 12.863 6.42667 12.863ZM6.42667 18.1947H15.5733C16.0388 18.148 16.39 17.7502 16.39 17.2847C16.39 16.8063 16.0388 16.4097 15.5733 16.363H6.42667C6.07667 16.328 5.73833 16.4913 5.55167 16.7947C5.365 17.0863 5.365 17.4713 5.55167 17.7747C5.73833 18.0663 6.07667 18.2413 6.42667 18.1947Z" fill="#EF400F"/>
</g>
</svg>
