<svg xmlns="http://www.w3.org/2000/svg" xmlns:xlink="http://www.w3.org/1999/xlink" viewBox="0 0 175 214.06"><defs><style>.cls-1{isolation:isolate;}.cls-2{fill:#dabca5;}.cls-10,.cls-2,.cls-3,.cls-4,.cls-6,.cls-8,.cls-9{fill-rule:evenodd;}.cls-3{fill:url(#linear-gradient);}.cls-4{fill:url(#linear-gradient-2);}.cls-5{fill:url(#linear-gradient-3);}.cls-6{fill:url(#linear-gradient-4);}.cls-7{fill:url(#linear-gradient-5);}.cls-8{fill:url(#linear-gradient-6);}.cls-9{fill:url(#linear-gradient-7);}.cls-10{fill:url(#linear-gradient-8);}.cls-11{fill:url(#linear-gradient-9);}.cls-12{fill:url(#linear-gradient-10);}.cls-13{mix-blend-mode:multiply;opacity:0.23;}.cls-14{fill:url(#linear-gradient-11);}.cls-15{fill:url(#radial-gradient);}.cls-16{fill:url(#linear-gradient-12);}.cls-17{fill:url(#linear-gradient-13);}.cls-18{fill:#d8b79d;}.cls-19{fill:url(#linear-gradient-14);}.cls-20{fill:#e7c6b5;}.cls-21{fill:url(#linear-gradient-15);}.cls-22{fill:url(#linear-gradient-16);}.cls-23{fill:url(#linear-gradient-17);}.cls-24{fill:url(#linear-gradient-18);}.cls-25{fill:url(#linear-gradient-19);}.cls-26{fill:url(#linear-gradient-20);}.cls-27{fill:url(#linear-gradient-21);}.cls-28{fill:url(#linear-gradient-22);}.cls-29{fill:url(#linear-gradient-23);}.cls-30{fill:url(#linear-gradient-24);}.cls-31{fill:url(#linear-gradient-25);}</style><linearGradient id="linear-gradient" x1="20.63" y1="179.35" x2="154.05" y2="45.93" gradientUnits="userSpaceOnUse"><stop offset="0" stop-color="#ff9a44"/><stop offset="1" stop-color="#fc6076"/></linearGradient><linearGradient id="linear-gradient-2" x1="23.69" y1="176.29" x2="150.99" y2="48.99" xlink:href="#linear-gradient"/><linearGradient id="linear-gradient-3" x1="140.19" y1="106.77" x2="109.4" y2="-89.62" gradientUnits="userSpaceOnUse"><stop offset="0" stop-color="#fbf7f4"/><stop offset="0.2" stop-color="#faf3ef"/><stop offset="0.37" stop-color="#f7ede5"/><stop offset="0.63" stop-color="#fff"/><stop offset="1" stop-color="#8d7b6c"/></linearGradient><linearGradient id="linear-gradient-4" x1="134.88" y1="132.52" x2="260.87" y2="71.06" xlink:href="#linear-gradient-3"/><linearGradient id="linear-gradient-5" x1="147.62" y1="106.77" x2="116.82" y2="-89.62" gradientTransform="matrix(-1, 0, 0, 1, 182.43, 0)" xlink:href="#linear-gradient-3"/><linearGradient id="linear-gradient-6" x1="142.3" y1="132.52" x2="206.99" y2="100.96" gradientTransform="matrix(-1, 0, 0, 1, 182.43, 0)" xlink:href="#linear-gradient-3"/><linearGradient id="linear-gradient-7" x1="22.84" y1="156.74" x2="118.05" y2="246.12" xlink:href="#linear-gradient-3"/><linearGradient id="linear-gradient-8" x1="87.34" y1="182.44" x2="174.53" y2="182.44" xlink:href="#linear-gradient-3"/><linearGradient id="linear-gradient-9" x1="77.77" y1="29.03" x2="59.04" y2="10.84" gradientUnits="userSpaceOnUse"><stop offset="0" stop-color="#fffbfd"/><stop offset="1" stop-color="#e7c6b5"/></linearGradient><linearGradient id="linear-gradient-10" x1="204.63" y1="29.03" x2="185.91" y2="10.84" gradientTransform="matrix(-1, 0, 0, 1, 301.54, 0)" xlink:href="#linear-gradient-9"/><linearGradient id="linear-gradient-11" x1="95.11" y1="67.86" x2="74.34" y2="-64.6" xlink:href="#linear-gradient-9"/><radialGradient id="radial-gradient" cx="87.33" cy="24.24" r="17.27" xlink:href="#linear-gradient"/><linearGradient id="linear-gradient-12" x1="82.03" y1="15.71" x2="80.24" y2="17.4" xlink:href="#linear-gradient-9"/><linearGradient id="linear-gradient-13" x1="91.79" y1="15.69" x2="93.89" y2="17.11" xlink:href="#linear-gradient-9"/><linearGradient id="linear-gradient-14" x1="87.3" y1="16.4" x2="87.18" y2="39.51" xlink:href="#linear-gradient-9"/><linearGradient id="linear-gradient-15" x1="82.29" y1="23.36" x2="85.48" y2="23.36" xlink:href="#linear-gradient-9"/><linearGradient id="linear-gradient-16" x1="83.77" y1="22.49" x2="84.23" y2="26.17" xlink:href="#linear-gradient-9"/><linearGradient id="linear-gradient-17" x1="88.8" y1="23.46" x2="91.99" y2="23.46" xlink:href="#linear-gradient-9"/><linearGradient id="linear-gradient-18" x1="90.29" y1="22.58" x2="90.74" y2="26.26" xlink:href="#linear-gradient-9"/><linearGradient id="linear-gradient-19" x1="93.4" y1="17.84" x2="93.83" y2="20.15" xlink:href="#linear-gradient-9"/><linearGradient id="linear-gradient-20" x1="93.46" y1="21.08" x2="93.8" y2="22.87" xlink:href="#linear-gradient-9"/><linearGradient id="linear-gradient-21" x1="94.83" y1="19.47" x2="95.5" y2="21.57" xlink:href="#linear-gradient-9"/><linearGradient id="linear-gradient-22" x1="92.1" y1="19.68" x2="92.49" y2="21.47" xlink:href="#linear-gradient-9"/><linearGradient id="linear-gradient-23" x1="81.45" y1="16.09" x2="79.93" y2="22.24" xlink:href="#linear-gradient-9"/><linearGradient id="linear-gradient-24" x1="85.66" y1="19.8" x2="85.64" y2="21.34" xlink:href="#linear-gradient-9"/><linearGradient id="linear-gradient-25" x1="88.52" y1="19.84" x2="88.5" y2="21.21" xlink:href="#linear-gradient-9"/></defs><g class="cls-1"><g id="Layer_2" data-name="Layer 2"><g id="Layer_1-2" data-name="Layer 1"><path class="cls-2" d="M87.5,17.25,128.81,41.1,170.11,65v95.38l-41.3,23.85L87.5,208,46.2,184.18,4.9,160.33V65L46.2,41.1,87.5,17.25Zm0,19,33.07,19.09,33.06,19.09v76.36l-33.06,19.09L87.5,189,54.44,169.91,21.37,150.82V74.46L54.44,55.37,87.5,36.28Z"/><path class="cls-3" d="M129.63,39.39,108.48,27.18,87.34,15,66.19,27.18,45,39.39,2.75,63.8h0v97.67h0L23.9,173.68,45,185.89,66.19,198.1l21.15,12.21,21.14-12.21,21.15-12.21,21.14-12.21,21.15-12.21h0V63.8h0Zm25.42,34.15v78.19l-18.14,10.48-15.72,9.07-16.93,9.77-16.92,9.78-7.86-4.54-26-15-14.13-8.16L19.62,151.73V73.54L40.29,61.61,53.48,54,77.11,40.36l10.23-5.91L121.19,54Z"/><path class="cls-4" d="M127.69,42.75,107.51,31.1,87.34,19.45,67.16,31.1,47,42.75,6.63,66h0v93.19h0l20.18,11.65L47,182.53l20.18,11.65,20.18,11.65,20.17-11.65,20.18-11.65,20.17-11.65L168,159.23h0V66h0Zm24.25,32.59v74.6l-17.31,10-15,8.66-16.15,9.32-16.15,9.33-7.5-4.33L55,168.59,41.55,160.8,22.73,149.94V75.34L42.45,64,55,56.69l22.54-13L87.34,38l32.3,18.65Z"/><polygon class="cls-5" points="174.85 62.27 161.87 54.77 157.19 57.49 128.81 41.1 100.49 24.75 100.49 20.16 87.5 12.66 87.5 17.25 87.5 17.25 87.5 26.77 87.5 36.28 120.57 55.37 153.63 74.46 157.12 72.44 157.12 72.52 174.85 62.27"/><polygon class="cls-6" points="170.11 145.34 170.11 112.64 170.11 80.02 174.85 77.2 174.85 62.21 170.11 65.03 170.11 64.95 161.87 69.7 153.63 74.46 153.63 112.64 153.63 150.82 157.13 152.84 157.13 152.84 175 163.75 175 148.76 170.11 145.34"/><polygon class="cls-7" points="0.15 62.27 13.13 54.77 17.81 57.49 46.2 41.1 74.52 24.75 74.52 20.16 87.5 12.66 87.5 17.25 87.5 17.25 87.5 26.77 87.5 36.28 54.44 55.37 21.37 74.46 17.88 72.44 17.88 72.52 0.15 62.27"/><polygon class="cls-8" points="4.9 145.34 4.9 112.64 4.9 80.02 0.15 77.2 0.15 62.21 4.9 65.03 4.9 64.95 13.13 69.7 21.37 74.46 21.37 112.64 21.37 150.82 17.88 152.84 17.88 152.84 0 163.75 0 148.76 4.9 145.34"/><polygon class="cls-9" points="54.44 169.91 21.37 150.82 0 163.75 13.12 171.24 17.88 167.83 17.88 167.83 46.2 184.18 74.44 200.48 74.35 200.53 74.35 206.56 87.34 214.06 87.34 207.93 87.5 208.02 87.5 198.51 87.5 189 54.44 169.91"/><polygon class="cls-10" points="170.11 160.33 170.11 160.33 161.87 155.57 153.63 150.82 120.57 169.91 87.5 189 87.5 193.13 87.34 193.03 87.34 214.06 100.32 206.56 100.32 200.62 128.81 184.18 157.13 167.83 157.13 167.83 162.02 171.24 174.53 163.41 170.11 160.33"/><polygon class="cls-11" points="74.25 10.67 70.88 10.58 60.55 18.25 65.16 31.73 68.21 31.73 63.79 18.25 74.25 10.67"/><polygon class="cls-12" points="100.42 10.67 103.79 10.58 114.13 18.25 109.51 31.73 106.46 31.73 110.88 18.25 100.42 10.67"/><g class="cls-13"><polygon points="87.55 1 83.1 3.04 83.12 4.89 63.38 19.23 72.53 47.39 102.13 47.39 111.28 19.23 91.7 4.88 91.74 3.04 87.55 1"/></g><polygon class="cls-14" points="87.55 0 83.1 2.04 83.12 3.89 63.38 18.23 72.53 46.39 102.13 46.39 111.28 18.23 91.7 3.88 91.74 2.04 87.55 0"/><polygon class="cls-15" points="87.33 7.4 69.63 20.26 76.39 41.07 98.27 41.07 105.03 20.26 87.33 7.4"/><g class="cls-13"><path d="M79.45,16.54a13.61,13.61,0,0,1,2.63-.32.61.61,0,0,1,.54.67,11.7,11.7,0,0,1-.25,2.22,12.12,12.12,0,0,0-3.23-.4,8.43,8.43,0,0,0-.12-1.6A.52.52,0,0,1,79.45,16.54Z"/><path d="M94.89,16.54a13.61,13.61,0,0,0-2.63-.32.61.61,0,0,0-.54.67A11.7,11.7,0,0,0,92,19.11a12.12,12.12,0,0,1,3.23-.4,8.43,8.43,0,0,1,.12-1.6A.51.51,0,0,0,94.89,16.54Z"/><path d="M99.6,28.4c-.21-1-.52-2-.78-3-.54-1.94-1.23-3.84-1.95-5.72a3.2,3.2,0,0,0-3-2h-.73a3.2,3.2,0,0,0-2.14.82l-.55.5a3.71,3.71,0,0,1-2.48,1H86.47A3.7,3.7,0,0,1,84,19l-.56-.5a3.18,3.18,0,0,0-2.14-.82h-.72a3.2,3.2,0,0,0-3,2c-.72,1.88-1.41,3.78-2,5.72-.26.92-.56,1.94-.77,3a8.84,8.84,0,0,0-.12,3.5,3,3,0,0,0,4.81,1.69A34,34,0,0,0,82.82,30a3.69,3.69,0,0,1,2.85-1.35H88.8A3.7,3.7,0,0,1,91.65,30a31.94,31.94,0,0,0,3.26,3.55,3,3,0,0,0,4.8-1.69A8.65,8.65,0,0,0,99.6,28.4Z"/><path d="M99.6,27.74c-.21-1-.52-2-.78-3-.54-1.94-1.23-3.84-1.95-5.72a3.2,3.2,0,0,0-3-2h-.73a3.2,3.2,0,0,0-2.14.82l-.55.5a3.71,3.71,0,0,1-2.48,1H86.47a3.7,3.7,0,0,1-2.47-1l-.56-.5A3.18,3.18,0,0,0,81.3,17h-.72a3.2,3.2,0,0,0-3,2c-.72,1.88-1.41,3.78-2,5.72-.26.92-.56,1.94-.77,3a8.84,8.84,0,0,0-.12,3.5,3,3,0,0,0,4.81,1.69,34,34,0,0,0,3.26-3.55A3.69,3.69,0,0,1,85.67,28H88.8a3.7,3.7,0,0,1,2.85,1.35,31.94,31.94,0,0,0,3.26,3.55,3,3,0,0,0,4.8-1.69A8.65,8.65,0,0,0,99.6,27.74Z"/><path d="M99.71,30c-.44,1.53-3.11,2.32-4.8,1.25a28.48,28.48,0,0,1-3.26-2.63,4.26,4.26,0,0,0-2.85-1H85.67a4.24,4.24,0,0,0-2.85,1,30.33,30.33,0,0,1-3.26,2.63c-1.7,1.07-4.37.28-4.81-1.25a4.08,4.08,0,0,1-.11-.59,6.83,6.83,0,0,0,.11,1.87,3,3,0,0,0,4.81,1.69,34,34,0,0,0,3.26-3.55A3.69,3.69,0,0,1,85.67,28H88.8a3.7,3.7,0,0,1,2.85,1.35,31.94,31.94,0,0,0,3.26,3.55,3,3,0,0,0,4.8-1.69,6.83,6.83,0,0,0,.11-1.87A3.06,3.06,0,0,1,99.71,30Z"/><circle cx="84.1" cy="25.33" r="2.23"/><circle cx="84.1" cy="25.33" r="1.92"/><circle cx="83.88" cy="24.36" r="1.6"/><path d="M85.2,24.36a1.32,1.32,0,1,0-1.32,1.32A1.32,1.32,0,0,0,85.2,24.36Z"/><circle cx="90.06" cy="25.33" r="2.23"/><circle cx="90.06" cy="25.33" r="1.92"/><circle cx="90.4" cy="24.46" r="1.6"/><path d="M91.71,24.46a1.32,1.32,0,1,0-1.31,1.31A1.31,1.31,0,0,0,91.71,24.46Z"/><path d="M94.55,20.1a.92.92,0,0,1-1.82,0,.92.92,0,0,1,1.82,0Z"/><ellipse cx="93.64" cy="20.1" rx="0.72" ry="0.61"/><path d="M94.55,23a.92.92,0,1,1-.91-.77A.85.85,0,0,1,94.55,23Z"/><ellipse cx="93.64" cy="23.01" rx="0.72" ry="0.61"/><path d="M96.08,21.54a.92.92,0,1,1-.91-.77A.85.85,0,0,1,96.08,21.54Z"/><path d="M95.89,21.54a.73.73,0,0,1-1.44,0,.73.73,0,0,1,1.44,0Z"/><path d="M93.2,21.54a.92.92,0,0,1-1.82,0,.92.92,0,0,1,1.82,0Z"/><path d="M93,21.54a.67.67,0,0,1-.72.61.68.68,0,0,1-.73-.61.69.69,0,0,1,.73-.62A.68.68,0,0,1,93,21.54Z"/><circle cx="80.48" cy="21.02" r="2.1"/><circle cx="80.48" cy="21.02" r="1.89"/><path d="M81.58,20.6h-.52a.16.16,0,0,1-.16-.16v-.52a.16.16,0,0,0-.16-.16h-.52a.16.16,0,0,0-.16.16v.52a.16.16,0,0,1-.16.16h-.51a.16.16,0,0,0-.16.16v.51a.16.16,0,0,0,.16.16h.51a.16.16,0,0,1,.16.16v.52a.16.16,0,0,0,.16.16h.52a.16.16,0,0,0,.16-.16v-.52a.16.16,0,0,1,.16-.16h.52a.16.16,0,0,0,.16-.16v-.51A.16.16,0,0,0,81.58,20.6Z"/><rect x="84.54" y="20.99" width="2.23" height="0.84" rx="0.15"/><rect x="87.4" y="20.99" width="2.23" height="0.84" rx="0.15"/></g><path class="cls-16" d="M79.45,15.54a13.61,13.61,0,0,1,2.63-.32.61.61,0,0,1,.54.67,11.7,11.7,0,0,1-.25,2.22,12.12,12.12,0,0,0-3.23-.4,8.43,8.43,0,0,0-.12-1.6A.52.52,0,0,1,79.45,15.54Z"/><path class="cls-17" d="M94.89,15.54a13.61,13.61,0,0,0-2.63-.32.61.61,0,0,0-.54.67A11.7,11.7,0,0,0,92,18.11a12.12,12.12,0,0,1,3.23-.4,8.43,8.43,0,0,1,.12-1.6A.51.51,0,0,0,94.89,15.54Z"/><path class="cls-18" d="M99.6,27.4c-.21-1-.52-2-.78-3-.54-1.94-1.23-3.84-1.95-5.72a3.2,3.2,0,0,0-3-2h-.73a3.2,3.2,0,0,0-2.14.82l-.55.5a3.71,3.71,0,0,1-2.48,1H86.47A3.7,3.7,0,0,1,84,18l-.56-.5a3.18,3.18,0,0,0-2.14-.82h-.72a3.2,3.2,0,0,0-3,2c-.72,1.88-1.41,3.78-2,5.72-.26.92-.56,1.94-.77,3a8.84,8.84,0,0,0-.12,3.5,3,3,0,0,0,4.81,1.69A34,34,0,0,0,82.82,29a3.69,3.69,0,0,1,2.85-1.35H88.8A3.7,3.7,0,0,1,91.65,29a31.94,31.94,0,0,0,3.26,3.55,3,3,0,0,0,4.8-1.69A8.65,8.65,0,0,0,99.6,27.4Z"/><path class="cls-19" d="M99.6,26.74c-.21-1-.52-2-.78-3-.54-1.94-1.23-3.84-1.95-5.72a3.2,3.2,0,0,0-3-2h-.73a3.2,3.2,0,0,0-2.14.82l-.55.5a3.71,3.71,0,0,1-2.48,1H86.47a3.7,3.7,0,0,1-2.47-1l-.56-.5A3.18,3.18,0,0,0,81.3,16h-.72a3.2,3.2,0,0,0-3,2c-.72,1.88-1.41,3.78-2,5.72-.26.92-.56,1.94-.77,3a8.84,8.84,0,0,0-.12,3.5,3,3,0,0,0,4.81,1.69,34,34,0,0,0,3.26-3.55A3.69,3.69,0,0,1,85.67,27H88.8a3.7,3.7,0,0,1,2.85,1.35,31.94,31.94,0,0,0,3.26,3.55,3,3,0,0,0,4.8-1.69A8.65,8.65,0,0,0,99.6,26.74Z"/><path class="cls-20" d="M99.71,29c-.44,1.53-3.11,2.32-4.8,1.25a28.48,28.48,0,0,1-3.26-2.63,4.26,4.26,0,0,0-2.85-1H85.67a4.24,4.24,0,0,0-2.85,1,30.33,30.33,0,0,1-3.26,2.63c-1.7,1.07-4.37.28-4.81-1.25a4.08,4.08,0,0,1-.11-.59,6.83,6.83,0,0,0,.11,1.87,3,3,0,0,0,4.81,1.69,34,34,0,0,0,3.26-3.55A3.69,3.69,0,0,1,85.67,27H88.8a3.7,3.7,0,0,1,2.85,1.35,31.94,31.94,0,0,0,3.26,3.55,3,3,0,0,0,4.8-1.69,6.83,6.83,0,0,0,.11-1.87A3.06,3.06,0,0,1,99.71,29Z"/><circle class="cls-18" cx="84.1" cy="24.33" r="2.23"/><circle class="cls-20" cx="84.1" cy="24.33" r="1.92"/><circle class="cls-21" cx="83.88" cy="23.36" r="1.6"/><path class="cls-22" d="M85.2,23.36a1.32,1.32,0,1,0-1.32,1.32A1.32,1.32,0,0,0,85.2,23.36Z"/><circle class="cls-18" cx="90.06" cy="24.33" r="2.23"/><circle class="cls-20" cx="90.06" cy="24.33" r="1.92"/><circle class="cls-23" cx="90.4" cy="23.46" r="1.6"/><path class="cls-24" d="M91.71,23.46a1.32,1.32,0,1,0-1.31,1.31A1.31,1.31,0,0,0,91.71,23.46Z"/><path class="cls-18" d="M94.55,19.1a.92.92,0,0,1-1.82,0,.92.92,0,0,1,1.82,0Z"/><ellipse class="cls-25" cx="93.64" cy="19.1" rx="0.72" ry="0.61"/><path class="cls-18" d="M94.55,22a.92.92,0,1,1-.91-.77A.85.85,0,0,1,94.55,22Z"/><ellipse class="cls-26" cx="93.64" cy="22.01" rx="0.72" ry="0.61"/><path class="cls-18" d="M96.08,20.54a.92.92,0,1,1-.91-.77A.85.85,0,0,1,96.08,20.54Z"/><path class="cls-27" d="M95.89,20.54a.73.73,0,0,1-1.44,0,.73.73,0,0,1,1.44,0Z"/><path class="cls-18" d="M93.2,20.54a.92.92,0,0,1-1.82,0,.92.92,0,0,1,1.82,0Z"/><path class="cls-28" d="M93,20.54a.67.67,0,0,1-.72.61.68.68,0,0,1-.73-.61.69.69,0,0,1,.73-.62A.68.68,0,0,1,93,20.54Z"/><circle class="cls-18" cx="80.48" cy="20.02" r="2.1"/><circle class="cls-29" cx="80.48" cy="20.02" r="1.89"/><path class="cls-20" d="M81.58,19.6h-.52a.16.16,0,0,1-.16-.16v-.52a.16.16,0,0,0-.16-.16h-.52a.16.16,0,0,0-.16.16v.52a.16.16,0,0,1-.16.16h-.51a.16.16,0,0,0-.16.16v.51a.16.16,0,0,0,.16.16h.51a.16.16,0,0,1,.16.16v.52a.16.16,0,0,0,.16.16h.52a.16.16,0,0,0,.16-.16v-.52a.16.16,0,0,1,.16-.16h.52a.16.16,0,0,0,.16-.16v-.51A.16.16,0,0,0,81.58,19.6Z"/><rect class="cls-30" x="84.54" y="19.99" width="2.23" height="0.84" rx="0.15"/><rect class="cls-31" x="87.4" y="19.99" width="2.23" height="0.84" rx="0.15"/></g></g></g></svg>