<svg width="24" height="25" viewBox="0 0 24 25" fill="none" xmlns="http://www.w3.org/2000/svg">
<path d="M11.6791 16.0135C11.4891 16.0135 11.2991 15.9435 11.1491 15.7935C10.8591 15.5035 10.8591 15.0235 11.1491 14.7335L13.1791 12.7035L11.1491 10.6735C10.8591 10.3835 10.8591 9.9035 11.1491 9.6135C11.4391 9.3235 11.9191 9.3235 12.2091 9.6135L14.7691 12.1735C15.0591 12.4635 15.0591 12.9435 14.7691 13.2335L12.2091 15.7935C12.0691 15.9435 11.8691 16.0135 11.6791 16.0135Z" fill="#EF400F"/>
<path d="M14.17 13.4536H4C3.59 13.4536 3.25 13.1136 3.25 12.7036C3.25 12.2936 3.59 11.9536 4 11.9536H14.17C14.58 11.9536 14.92 12.2936 14.92 12.7036C14.92 13.1136 14.58 13.4536 14.17 13.4536Z" fill="#EF400F"/>
<path d="M12 21.3936C11.59 21.3936 11.25 21.0536 11.25 20.6436C11.25 20.2336 11.59 19.8936 12 19.8936C16.27 19.8936 19.25 16.9136 19.25 12.6436C19.25 8.37355 16.27 5.39355 12 5.39355C11.59 5.39355 11.25 5.05355 11.25 4.64355C11.25 4.23355 11.59 3.89355 12 3.89355C17.15 3.89355 20.75 7.49355 20.75 12.6436C20.75 17.7936 17.15 21.3936 12 21.3936Z" fill="#EF400F"/>
</svg>
