<svg width="20" height="21" viewBox="0 0 20 21" fill="none" xmlns="http://www.w3.org/2000/svg">
<path d="M12.4993 11.4351H6.66602C6.32435 11.4351 6.04102 11.1517 6.04102 10.8101C6.04102 10.4684 6.32435 10.1851 6.66602 10.1851H12.4993C12.841 10.1851 13.1243 10.4684 13.1243 10.8101C13.1243 11.1517 12.841 11.4351 12.4993 11.4351Z" fill="#00A9F1"/>
<path d="M10.316 14.7686H6.66602C6.32435 14.7686 6.04102 14.4852 6.04102 14.1436C6.04102 13.8019 6.32435 13.5186 6.66602 13.5186H10.316C10.6577 13.5186 10.941 13.8019 10.941 14.1436C10.941 14.4852 10.6577 14.7686 10.316 14.7686Z" fill="#00A9F1"/>
<path d="M11.666 6.26839H8.33268C7.53268 6.26839 6.04102 6.26839 6.04102 3.97673C6.04102 1.68506 7.53268 1.68506 8.33268 1.68506H11.666C12.466 1.68506 13.9577 1.68506 13.9577 3.97673C13.9577 4.77673 13.9577 6.26839 11.666 6.26839ZM8.33268 2.93506C7.50768 2.93506 7.29102 2.93506 7.29102 3.97673C7.29102 5.01839 7.50768 5.01839 8.33268 5.01839H11.666C12.7077 5.01839 12.7077 4.80173 12.7077 3.97673C12.7077 2.93506 12.491 2.93506 11.666 2.93506H8.33268Z" fill="#00A9F1"/>
<path d="M12.5 19.6017H7.5C2.81667 19.6017 1.875 17.4517 1.875 13.9767V8.97675C1.875 5.17675 3.25 3.55175 6.63333 3.37675C6.96667 3.36008 7.275 3.61842 7.29167 3.96842C7.30833 4.31842 7.04167 4.60175 6.7 4.61842C4.33333 4.75175 3.125 5.46008 3.125 8.97675V13.9767C3.125 17.0601 3.73333 18.3517 7.5 18.3517H12.5C16.2667 18.3517 16.875 17.0601 16.875 13.9767V8.97675C16.875 5.46008 15.6667 4.75175 13.3 4.61842C12.9583 4.60175 12.6917 4.30175 12.7083 3.96008C12.725 3.61842 13.025 3.35175 13.3667 3.36842C16.75 3.55175 18.125 5.17675 18.125 8.96842V13.9684C18.125 17.4517 17.1833 19.6017 12.5 19.6017Z" fill="#00A9F1"/>
</svg>
