<svg width="20" height="20" viewBox="0 0 20 20" fill="none" xmlns="http://www.w3.org/2000/svg">
<path fill-rule="evenodd" clip-rule="evenodd" d="M14.6021 6.16342V7.4412C16.0374 7.88921 17.0832 9.18853 17.0832 10.7404V14.8545C17.0832 16.7757 15.4904 18.3334 13.5267 18.3334H6.47384C4.5093 18.3334 2.9165 16.7757 2.9165 14.8545V10.7404C2.9165 9.18853 3.96313 7.88921 5.39758 7.4412V6.16342C5.40604 3.67907 7.46373 1.66675 9.98714 1.66675C12.5444 1.66675 14.6021 3.67907 14.6021 6.16342ZM10.0041 3.11595C11.723 3.11595 13.1202 4.48234 13.1202 6.16342V7.2615H6.87944V6.14686C6.88791 4.47406 8.2851 3.11595 10.0041 3.11595ZM10.7408 13.7125C10.7408 14.1183 10.4105 14.4413 9.9956 14.4413C9.58915 14.4413 9.2589 14.1183 9.2589 13.7125V11.8741C9.2589 11.4766 9.58915 11.1536 9.9956 11.1536C10.4105 11.1536 10.7408 11.4766 10.7408 11.8741V13.7125Z" fill="#EF400F"/>
</svg>
