<?xml version="1.0" encoding="UTF-8"?>
<svg xmlns="http://www.w3.org/2000/svg" xmlns:xlink="http://www.w3.org/1999/xlink" viewBox="0 0 249.61 238.46">
  <defs>
    <style>
      .cls-1 {
        fill: url(#linear-gradient);
      }

      .cls-2 {
        fill: url(#linear-gradient-3);
      }

      .cls-3 {
        fill: url(#linear-gradient-2);
      }

      .cls-4 {
        isolation: isolate;
      }

      .cls-5 {
        fill: url(#radial-gradient);
        mix-blend-mode: screen;
      }
    </style>
    <linearGradient id="linear-gradient" x1="108.67" y1="9.97" x2="153.41" y2="242.17" gradientUnits="userSpaceOnUse">
      <stop offset="0" stop-color="#fdd733"/>
      <stop offset="1" stop-color="#f9ab21"/>
    </linearGradient>
    <linearGradient id="linear-gradient-2" x1="118.61" y1="29.83" x2="136.97" y2="219.17" gradientUnits="userSpaceOnUse">
      <stop offset="0" stop-color="#fde265"/>
      <stop offset="1" stop-color="#fdd733"/>
    </linearGradient>
    <radialGradient id="radial-gradient" cx="152.22" cy="179.76" fx="152.22" fy="179.76" r="139.62" gradientTransform="translate(-3.75 -.86) scale(.95)" gradientUnits="userSpaceOnUse">
      <stop offset="0" stop-color="#fced97"/>
      <stop offset="1" stop-color="#000"/>
    </radialGradient>
    <linearGradient id="linear-gradient-3" x1="123.49" y1="12.87" x2="127.02" y2="229.76" gradientUnits="userSpaceOnUse">
      <stop offset="0" stop-color="#fdd733"/>
      <stop offset="1" stop-color="#fbc12a"/>
    </linearGradient>
  </defs>
  <g class="cls-4">
    <g id="Layer_2" data-name="Layer 2">
      <g id="OBJECT">
        <g>
          <path class="cls-1" d="m134.59,6.08l32.65,66.16,73.01,10.61c8.95,1.3,12.52,12.3,6.05,18.61l-52.83,51.5,12.47,72.72c1.53,8.91-7.83,15.71-15.83,11.5l-65.31-34.33-65.31,34.33c-8,4.21-17.36-2.59-15.83-11.5l12.47-72.72L3.31,101.46c-6.48-6.31-2.9-17.31,6.05-18.61l73.01-10.61L115.02,6.08c4-8.11,15.56-8.11,19.57,0Z"/>
          <path class="cls-3" d="m195.19,229.98c-.37,0-.74-.1-1.13-.3l-69.25-36.41-69.25,36.41c-.39.2-.76.3-1.13.3-.69,0-1.42-.35-1.9-.93-.46-.55-.63-1.18-.5-1.94l13.23-77.11L9.22,95.39c-.9-.87-.83-1.84-.62-2.49.21-.66.73-1.48,1.96-1.66l77.43-11.25L122.62,9.83c.55-1.12,1.49-1.35,2.18-1.35s1.63.23,2.18,1.35l34.63,70.16,77.42,11.25c1.24.18,1.75,1,1.96,1.66.21.66.28,1.62-.62,2.49l-56.03,54.61,13.23,77.11c.13.76-.03,1.39-.5,1.94-.48.57-1.21.93-1.9.93Z"/>
          <path class="cls-5" d="m241,92.9c-.21-.66-.73-1.48-1.96-1.66l-77.42-11.25L126.98,9.83c-.55-1.12-1.49-1.35-2.18-1.35s-1.63.23-2.18,1.35l-34.63,70.16-77.43,11.25c-1.24.18-1.75,1-1.96,1.66-.21.66-.28,1.62.62,2.49l18.3,17.84c30.13-14.16,70.51-16.38,110.75-3.19,21.49,7.05,40.41,17.67,55.81,30.48l46.3-45.13c.89-.87.83-1.84.62-2.49Z"/>
          <path class="cls-2" d="m240.38,95.39c.89-.87.83-1.84.62-2.49-.21-.66-.73-1.48-1.96-1.66l-77.42-11.25L126.98,9.83c-.55-1.12-1.49-1.35-2.18-1.35s-1.63.23-2.18,1.35l-34.63,70.16-77.43,11.25c-1.24.18-1.75,1-1.96,1.66-.21.66-.28,1.62.62,2.49l56.03,54.61-13.23,77.11c-.13.76.03,1.39.5,1.94.48.57,1.21.93,1.9.93.37,0,.75-.1,1.13-.3l69.25-36.41,69.25,36.41c.39.2.76.3,1.13.3.69,0,1.42-.36,1.9-.93.46-.55.63-1.18.5-1.94l-13.23-77.11,56.03-54.61Zm-44.92,132.3c-.09.11-.23.17-.28.17l-70.38-36.98-70.38,36.98s-.19-.06-.31-.39l13.41-78.21L10.7,93.87c-.12-.12-.14-.14-.08-.32.06-.19.08-.19.25-.22l78.53-11.41L124.52,10.77c.07-.15.08-.17.28-.17s.2.02.28.17l35.12,71.16,78.53,11.41c.17.02.19.03.25.21.06.18.04.2-.08.32l-56.82,55.39,13.39,78.43Z"/>
        </g>
      </g>
    </g>
  </g>
</svg>