<svg width="50" height="51" viewBox="0 0 50 51" fill="none" xmlns="http://www.w3.org/2000/svg">
<g id="Group">
<path id="Exclude" fill-rule="evenodd" clip-rule="evenodd" d="M14.3548 0.916016H35.6685C44.0023 0.916016 49.5827 6.76685 49.5827 15.4693V35.5564C49.5827 44.2318 44.0023 50.0827 35.6685 50.0827H14.3548C6.02102 50.0827 0.416016 44.2318 0.416016 35.5564V15.4693C0.416016 6.76685 6.02102 0.916016 14.3548 0.916016ZM23.598 32.8512L35.275 21.1741C36.1109 20.3383 36.1109 18.9862 35.275 18.1258C34.4392 17.2899 33.0625 17.2899 32.2267 18.1258L22.0738 28.2787L17.7717 23.9766C16.9359 23.1408 15.5592 23.1408 14.7234 23.9766C13.8875 24.8124 13.8875 26.1645 14.7234 27.0249L20.5742 32.8512C20.9921 33.2691 21.533 33.4658 22.0738 33.4658C22.6392 33.4658 23.18 33.2691 23.598 32.8512Z" fill="white"/>
</g>
</svg>
