<svg width="142" height="142" viewBox="0 0 142 142" fill="none" xmlns="http://www.w3.org/2000/svg">
<circle cx="71" cy="70.6436" r="70.5" fill="#F54336"/>
<path d="M71.0003 96.2506C68.4569 96.2506 65.9369 95.5039 63.9536 94.0339L53.9203 86.5439C51.2603 84.5606 49.1836 80.4072 49.1836 77.1172V59.7572C49.1836 56.1639 51.8203 52.3372 55.2036 51.0772L66.8469 46.7139C69.1569 45.8506 72.7969 45.8506 75.1069 46.7139L86.7503 51.0772C90.1336 52.3372 92.7703 56.1639 92.7703 59.7572V77.0939C92.7703 80.4072 90.6936 84.5372 88.0336 86.5206L78.0003 94.0106C76.0636 95.5039 73.5436 96.2506 71.0003 96.2506ZM68.0836 50.0039L56.4403 54.3672C54.4569 55.1139 52.7069 57.6339 52.7069 59.7806V77.1172C52.7069 79.3339 54.2703 82.4372 56.0203 83.7439L66.0536 91.2339C68.7369 93.2406 73.2636 93.2406 75.9703 91.2339L86.0036 83.7439C87.7769 82.4139 89.3169 79.3339 89.3169 77.1172V59.7572C89.3169 57.6339 87.5669 55.1139 85.5836 54.3439L73.9403 49.9806C72.3536 49.4206 69.6469 49.4206 68.0836 50.0039Z" fill="white"/>
<path d="M67.8739 76.3468C67.4305 76.3468 66.9872 76.1835 66.6372 75.8335L62.8805 72.0768C62.2039 71.4002 62.2039 70.2802 62.8805 69.6035C63.5572 68.9268 64.6772 68.9268 65.3539 69.6035L67.8739 72.1235L76.6705 63.3268C77.3472 62.6502 78.4672 62.6502 79.1439 63.3268C79.8205 64.0035 79.8205 65.1235 79.1439 65.8002L69.1105 75.8335C68.7605 76.1835 68.3172 76.3468 67.8739 76.3468Z" fill="white"/>
</svg>
