<svg width="16" height="16" viewBox="0 0 16 16" fill="none" xmlns="http://www.w3.org/2000/svg">
<path d="M14.0004 4.48681C13.9871 4.48681 13.9671 4.48681 13.9471 4.48681C10.4204 4.13348 6.90043 4.00015 3.41377 4.35348L2.05377 4.48681C1.77377 4.51348 1.5271 4.31348 1.50043 4.03348C1.47377 3.75348 1.67377 3.51348 1.9471 3.48681L3.3071 3.35348C6.85377 2.99348 10.4471 3.13348 14.0471 3.48681C14.3204 3.51348 14.5204 3.76015 14.4938 4.03348C14.4738 4.29348 14.2538 4.48681 14.0004 4.48681Z" fill="#EA1E61"/>
<path d="M5.66651 3.8135C5.63984 3.8135 5.61318 3.8135 5.57984 3.80683C5.31318 3.76016 5.12651 3.50016 5.17318 3.2335L5.31984 2.36016C5.42651 1.72016 5.57318 0.833496 7.12651 0.833496H8.87318C10.4332 0.833496 10.5798 1.7535 10.6798 2.36683L10.8265 3.2335C10.8732 3.50683 10.6865 3.76683 10.4198 3.80683C10.1465 3.8535 9.88651 3.66683 9.84651 3.40016L9.69984 2.5335C9.60651 1.9535 9.58651 1.84016 8.87984 1.84016H7.13318C6.42651 1.84016 6.41318 1.9335 6.31318 2.52683L6.15984 3.3935C6.11984 3.64016 5.90651 3.8135 5.66651 3.8135Z" fill="#EA1E61"/>
<path d="M10.1396 15.1667H5.85961C3.53294 15.1667 3.43961 13.8801 3.36627 12.8401L2.93294 6.12672C2.91294 5.85338 3.12627 5.61338 3.39961 5.59338C3.67961 5.58005 3.91294 5.78672 3.93294 6.06005L4.36627 12.7734C4.43961 13.7867 4.46627 14.1667 5.85961 14.1667H10.1396C11.5396 14.1667 11.5663 13.7867 11.6329 12.7734L12.0663 6.06005C12.0863 5.78672 12.3263 5.58005 12.5996 5.59338C12.8729 5.61338 13.0863 5.84672 13.0663 6.12672L12.6329 12.8401C12.5596 13.8801 12.4663 15.1667 10.1396 15.1667Z" fill="#EA1E61"/>
<path d="M9.10672 11.5H6.88672C6.61339 11.5 6.38672 11.2733 6.38672 11C6.38672 10.7267 6.61339 10.5 6.88672 10.5H9.10672C9.38005 10.5 9.60672 10.7267 9.60672 11C9.60672 11.2733 9.38005 11.5 9.10672 11.5Z" fill="#EA1E61"/>
<path d="M9.66732 8.8335H6.33398C6.06065 8.8335 5.83398 8.60683 5.83398 8.3335C5.83398 8.06016 6.06065 7.8335 6.33398 7.8335H9.66732C9.94065 7.8335 10.1673 8.06016 10.1673 8.3335C10.1673 8.60683 9.94065 8.8335 9.66732 8.8335Z" fill="#EA1E61"/>
</svg>
