<svg width="48" height="49" viewBox="0 0 48 49" fill="none" xmlns="http://www.w3.org/2000/svg">
<rect y="0.5" width="48" height="48" rx="6" fill="#FAFAFA"/>
<path d="M19.5 22.625C17.22 22.625 15.375 20.78 15.375 18.5C15.375 16.22 17.22 14.375 19.5 14.375C21.78 14.375 23.625 16.22 23.625 18.5C23.625 20.78 21.78 22.625 19.5 22.625ZM19.5 16.625C18.465 16.625 17.625 17.465 17.625 18.5C17.625 19.535 18.465 20.375 19.5 20.375C20.535 20.375 21.375 19.535 21.375 18.5C21.375 17.465 20.535 16.625 19.5 16.625Z" fill="#0E0D5D"/>
<path d="M28.5 40.625H19.5C11.355 40.625 7.875 37.145 7.875 29V20C7.875 11.855 11.355 8.375 19.5 8.375H25.5C26.115 8.375 26.625 8.885 26.625 9.5C26.625 10.115 26.115 10.625 25.5 10.625H19.5C12.585 10.625 10.125 13.085 10.125 20V29C10.125 35.915 12.585 38.375 19.5 38.375H28.5C35.415 38.375 37.875 35.915 37.875 29V21.5C37.875 20.885 38.385 20.375 39 20.375C39.615 20.375 40.125 20.885 40.125 21.5V29C40.125 37.145 36.645 40.625 28.5 40.625Z" fill="#0E0D5D"/>
<path d="M33 19.6249C32.385 19.6249 31.875 19.1149 31.875 18.4999V9.49991C31.875 9.04991 32.145 8.62991 32.565 8.46491C32.985 8.29991 33.465 8.38991 33.795 8.70491L36.795 11.7049C37.23 12.1399 37.23 12.8599 36.795 13.2949C36.36 13.7299 35.64 13.7299 35.205 13.2949L34.125 12.2149V18.4999C34.125 19.1149 33.615 19.6249 33 19.6249Z" fill="#0E0D5D"/>
<path d="M30.0002 13.6252C29.7152 13.6252 29.4302 13.5202 29.2052 13.2952C28.7702 12.8602 28.7702 12.1402 29.2052 11.7052L32.2052 8.70516C32.6402 8.27016 33.3602 8.27016 33.7952 8.70516C34.2302 9.14016 34.2302 9.86016 33.7952 10.2952L30.7952 13.2952C30.5702 13.5202 30.2852 13.6252 30.0002 13.6252Z" fill="#0E0D5D"/>
<path d="M10.0059 36.0498C9.64593 36.0498 9.28593 35.8698 9.07593 35.5548C8.73093 35.0448 8.86593 34.3398 9.37593 33.9948L16.7709 29.0298C18.3909 27.9498 20.6259 28.0698 22.0959 29.3148L22.5909 29.7498C23.3409 30.3948 24.6159 30.3948 25.3509 29.7498L31.5909 24.3948C33.1809 23.0298 35.6859 23.0298 37.2909 24.3948L39.7359 26.4948C40.2009 26.8998 40.2609 27.6048 39.8559 28.0848C39.4509 28.5498 38.7309 28.6098 38.2659 28.2048L35.8209 26.1048C35.0709 25.4598 33.8109 25.4598 33.0609 26.1048L26.8209 31.4598C25.2309 32.8248 22.7259 32.8248 21.1209 31.4598L20.6259 31.0248C19.9359 30.4398 18.7959 30.3798 18.0309 30.9048L10.6509 35.8698C10.4409 35.9898 10.2159 36.0498 10.0059 36.0498Z" fill="#0E0D5D"/>
</svg>
