<?xml version="1.0" encoding="UTF-8"?>
<svg id="Layer_2" data-name="Layer 2" xmlns="http://www.w3.org/2000/svg" xmlns:xlink="http://www.w3.org/1999/xlink" viewBox="0 0 719.9 461">
  <defs>
    <style>
      .cls-1 {
        fill: url(#linear-gradient-3);
      }

      .cls-1, .cls-2, .cls-3, .cls-4, .cls-5, .cls-6, .cls-7, .cls-8, .cls-9, .cls-10, .cls-11, .cls-12, .cls-13, .cls-14, .cls-15, .cls-16, .cls-17 {
        isolation: isolate;
      }

      .cls-1, .cls-2, .cls-3, .cls-4, .cls-5, .cls-6, .cls-11, .cls-12, .cls-13, .cls-14, .cls-15, .cls-16 {
        opacity: .54;
      }

      .cls-2 {
        fill: url(#linear-gradient-4);
      }

      .cls-3 {
        fill: url(#linear-gradient-6);
      }

      .cls-4 {
        fill: url(#linear-gradient-9);
      }

      .cls-5 {
        fill: url(#linear-gradient-7);
      }

      .cls-6 {
        fill: url(#linear-gradient);
      }

      .cls-18 {
        fill: #fff8cc;
      }

      .cls-19 {
        fill: #fff39f;
      }

      .cls-20 {
        fill: #894700;
      }

      .cls-7 {
        opacity: .26;
      }

      .cls-7, .cls-17 {
        fill: #e3a209;
      }

      .cls-8 {
        opacity: .22;
      }

      .cls-8, .cls-9, .cls-10 {
        fill: #fff;
      }

      .cls-9 {
        opacity: .16;
      }

      .cls-10 {
        opacity: .24;
      }

      .cls-11 {
        fill: url(#linear-gradient-18);
      }

      .cls-12 {
        fill: url(#linear-gradient-16);
      }

      .cls-13 {
        fill: url(#linear-gradient-13);
      }

      .cls-14 {
        fill: url(#linear-gradient-12);
      }

      .cls-15 {
        fill: url(#linear-gradient-15);
      }

      .cls-16 {
        fill: url(#linear-gradient-10);
      }

      .cls-21 {
        fill: url(#linear-gradient-8);
      }

      .cls-22 {
        fill: url(#linear-gradient-2);
      }

      .cls-23 {
        fill: url(#linear-gradient-5);
      }

      .cls-24 {
        fill: url(#radial-gradient);
      }

      .cls-25 {
        fill: url(#linear-gradient-14);
      }

      .cls-26 {
        fill: url(#linear-gradient-22);
      }

      .cls-27 {
        fill: url(#linear-gradient-20);
      }

      .cls-28 {
        fill: url(#linear-gradient-21);
      }

      .cls-29 {
        fill: url(#linear-gradient-23);
      }

      .cls-30 {
        fill: url(#linear-gradient-19);
      }

      .cls-31 {
        fill: url(#linear-gradient-17);
      }

      .cls-32 {
        fill: url(#linear-gradient-11);
      }

      .cls-33 {
        fill: url(#linear-gradient-24);
      }
    </style>
    <linearGradient id="linear-gradient" x1="475.4" y1="416.25" x2="719.9" y2="416.25" gradientTransform="translate(0 -306)" gradientUnits="userSpaceOnUse">
      <stop offset="0" stop-color="#fff18a" stop-opacity="0"/>
      <stop offset=".09" stop-color="#fff18a" stop-opacity=".03"/>
      <stop offset=".22" stop-color="#fff18a" stop-opacity=".1"/>
      <stop offset=".37" stop-color="#fff18a" stop-opacity=".23"/>
      <stop offset=".54" stop-color="#fff18a" stop-opacity=".41"/>
      <stop offset=".73" stop-color="#fff18a" stop-opacity=".63"/>
      <stop offset=".93" stop-color="#fff18a" stop-opacity=".9"/>
      <stop offset="1" stop-color="#fff18a"/>
    </linearGradient>
    <linearGradient id="linear-gradient-2" x1="416.37" y1="581.39" x2="676.39" y2="581.39" gradientTransform="translate(-82.96 -425.89) rotate(-12.65) scale(1 1.16) skewX(.35)" gradientUnits="userSpaceOnUse">
      <stop offset="0" stop-color="#fff18a"/>
      <stop offset="0" stop-color="#fff188"/>
      <stop offset=".07" stop-color="#ffea68"/>
      <stop offset=".14" stop-color="#ffe44d"/>
      <stop offset=".22" stop-color="#ffdf36"/>
      <stop offset=".31" stop-color="#ffdb25"/>
      <stop offset=".43" stop-color="#ffd919"/>
      <stop offset=".59" stop-color="#ffd712"/>
      <stop offset="1" stop-color="#ffd710"/>
    </linearGradient>
    <linearGradient id="linear-gradient-3" x1="416.72" y1="585.19" x2="631.48" y2="585.19" gradientTransform="translate(-82.96 -425.89) rotate(-12.65) scale(1 1.16) skewX(.35)" xlink:href="#linear-gradient"/>
    <linearGradient id="linear-gradient-4" x1="446.2" y1="506" x2="695.58" y2="506" xlink:href="#linear-gradient"/>
    <linearGradient id="linear-gradient-5" x1="393.48" y1="612.38" x2="653.5" y2="612.38" gradientTransform="translate(-59.95 -408.25) rotate(-9.74) scale(1 1.16) skewX(-.32)" xlink:href="#linear-gradient-2"/>
    <linearGradient id="linear-gradient-6" x1="393.83" y1="616.13" x2="608.59" y2="616.13" gradientTransform="translate(-59.95 -408.25) rotate(-9.74) scale(1 1.16) skewX(-.32)" xlink:href="#linear-gradient"/>
    <linearGradient id="linear-gradient-7" x1="412.5" y1="595.25" x2="665.95" y2="595.25" xlink:href="#linear-gradient"/>
    <linearGradient id="linear-gradient-8" x1="368.32" y1="631.79" x2="628.35" y2="631.79" gradientTransform="translate(-36.45 -381.52) rotate(-6.34) scale(1 1.16) skewX(.13)" xlink:href="#linear-gradient-2"/>
    <linearGradient id="linear-gradient-9" x1="368.67" y1="635.55" x2="583.43" y2="635.55" gradientTransform="translate(-36.45 -381.52) rotate(-6.34) scale(1 1.16) skewX(.13)" xlink:href="#linear-gradient"/>
    <linearGradient id="linear-gradient-10" x1="0" y1="416.3" x2="244.6" y2="416.3" xlink:href="#linear-gradient"/>
    <linearGradient id="linear-gradient-11" x1="-2086.48" y1="95.37" x2="-1826.46" y2="95.37" gradientTransform="translate(-1770.01 -425.89) rotate(-167.35) scale(1 -1.16) skewX(.35)" xlink:href="#linear-gradient-2"/>
    <linearGradient id="linear-gradient-12" x1="-2086.14" y1="99.16" x2="-1871.37" y2="99.16" gradientTransform="translate(-1770.01 -425.89) rotate(-167.35) scale(1 -1.16) skewX(.35)" xlink:href="#linear-gradient"/>
    <linearGradient id="linear-gradient-13" x1="24.22" y1="506" x2="273.6" y2="506" xlink:href="#linear-gradient"/>
    <linearGradient id="linear-gradient-14" x1="-2138.32" y1="235.63" x2="-1878.29" y2="235.63" gradientTransform="translate(-1793.03 -408.25) rotate(-170.26) scale(1 -1.16) skewX(-.32)" xlink:href="#linear-gradient-2"/>
    <linearGradient id="linear-gradient-15" x1="-2137.97" y1="239.32" x2="-1923.21" y2="239.32" gradientTransform="translate(-1793.03 -408.25) rotate(-170.26) scale(1 -1.16) skewX(-.32)" xlink:href="#linear-gradient"/>
    <linearGradient id="linear-gradient-16" x1="53.83" y1="595.25" x2="307.4" y2="595.25" xlink:href="#linear-gradient"/>
    <linearGradient id="linear-gradient-17" x1="-2193.72" y1="386.28" x2="-1933.69" y2="386.28" gradientTransform="translate(-1816.52 -381.52) rotate(-173.66) scale(1 -1.16) skewX(.13)" xlink:href="#linear-gradient-2"/>
    <linearGradient id="linear-gradient-18" x1="-2193.37" y1="390.04" x2="-1978.61" y2="390.04" gradientTransform="translate(-1816.52 -381.52) rotate(-173.66) scale(1 -1.16) skewX(.13)" xlink:href="#linear-gradient"/>
    <radialGradient id="radial-gradient" cx="360.45" cy="533.5" fx="360.45" fy="533.5" r="165.55" gradientTransform="translate(0 -306)" gradientUnits="userSpaceOnUse">
      <stop offset="0" stop-color="#ffdf40"/>
      <stop offset="1" stop-color="#f6bd1b"/>
    </radialGradient>
    <linearGradient id="linear-gradient-19" x1="213.35" y1="386.45" x2="507.45" y2="680.55" gradientTransform="translate(0 -306)" xlink:href="#linear-gradient-2"/>
    <linearGradient id="linear-gradient-20" x1="163.39" y1="466.43" x2="506.6" y2="583.21" gradientTransform="translate(0 -306)" gradientUnits="userSpaceOnUse">
      <stop offset="0" stop-color="#ffd710"/>
      <stop offset=".14" stop-color="#ffdf34"/>
      <stop offset=".29" stop-color="#ffe553"/>
      <stop offset=".44" stop-color="#ffea6b"/>
      <stop offset=".61" stop-color="#ffee7c"/>
      <stop offset=".79" stop-color="#fff087"/>
      <stop offset="1" stop-color="#fff18a"/>
    </linearGradient>
    <linearGradient id="linear-gradient-21" x1="265.16" y1="534.06" x2="391.75" y2="534.06" gradientTransform="translate(99.19 -322.98) scale(.97 1.03) skewX(-12.78)" xlink:href="#linear-gradient-2"/>
    <linearGradient id="linear-gradient-22" x1="401.82" y1="534.5" x2="526.75" y2="534.5" gradientTransform="translate(99.19 -322.98) scale(.97 1.03) skewX(-12.78)" xlink:href="#linear-gradient-2"/>
    <linearGradient id="linear-gradient-23" x1="404.5" y1="534.45" x2="525.44" y2="534.45" gradientTransform="translate(99.19 -322.98) scale(.97 1.03) skewX(-12.78)" xlink:href="#linear-gradient-20"/>
    <linearGradient id="linear-gradient-24" x1="267.78" y1="534.06" x2="389.15" y2="534.06" gradientTransform="translate(99.19 -322.98) scale(.97 1.03) skewX(-12.78)" xlink:href="#linear-gradient-20"/>
  </defs>
  <g id="Layer_1-2" data-name="Layer 1">
    <g id="Layer_2-2" data-name="Layer 2">
      <g id="Layer_1-2" data-name="Layer 1-2">
        <path class="cls-6" d="m690.9,114.8l-1.2,1.1c-4.9,4.5-10.4,8.5-16.2,11.8l-.5.3c-1.7,1-3.5,1.9-5.3,2.8l-40.9,17.2-67.3,28.4-12.6,5.3-23.9,10.2-.2.1-9,3.8-8.8,3.7-.3.1-9.3,3.9-.2-.7h0l-2.7-8.1-2.8-8.5-10.7-32.5-2.6-7.7h0l-.1-.4h0l-.9-2.8v-.1l.6-.3.2-.1h0l2.4-1.3,10.9-5.8.5-.2,8.8-4.6,9.6-5.1.5-.3h0l24.5-13,8.9-4.7.8-.4,3-1.6,166.9-88.3,5.2,21c6.3,25.7-5.4,56.2-27.3,76.8Z"/>
        <path class="cls-22" d="m666.4,131.5l-172.4,72.8-20-60.9,237.8-125.6,5.2,21c8.1,33.6-14.5,75.6-50.6,92.7Z"/>
        <path class="cls-1" d="m635.6,133.3l-144.4,61.9-16-48.6,196.7-101.1,4.2,16.1c6.5,25.6-11.6,58.1-40.5,71.7Z"/>
        <path class="cls-2" d="m694.9,154.4c-2.8,20.2-14.7,40.6-32,55.1-.4.4-.8.7-1.3,1.1-5.2,4.3-10.9,7.9-17,10.9-1.9.9-3.8,1.8-5.7,2.6l-43.8,15.7-48.2,17.2-23.9,8.6-.2.1-9,3.2-8.8,3.2-.3.1-40.9,14.6-1,.3h0l-2.4-9-13.3-49.6-.9-3.3v-.1l6.6-3.1,7.6-3.5.7-.3,8.4-3.8,1-.5,5.8-2.6,17.4-8,1.3-.6,9.6-4.4.3-.1,8.8-4.1,9-4.1.2-.1,24-11,11.6-5.3,60.5-27.8,71.6-32.9.2,1.3.1.4,3.7,19.5c1.2,6.8,1.3,13.6.3,20.3Z"/>
        <path class="cls-23" d="m637.6,224.7l-176.1,63.1-16.6-61.9,244.3-112.2,4,21.3c6.4,34-18.6,74.7-55.6,89.7Z"/>
        <path class="cls-3" d="m606.8,224.8l-147.7,53.8-13.3-49.4,202.1-90,3.3,16.3c5.1,25.9-14.8,57.3-44.4,69.3Z"/>
        <path class="cls-5" d="m647,287c-9.5,11.7-21.6,21-35.3,27.1l-.5.2c-2,.9-4.1,1.7-6.2,2.4l-58,17.1-90,26.5-.5.2h0l-31,9.1-.5-2.3-1.4-6.8-.5-2.2-.1-.3-5.6-27.2-.7-3.3v-.2l-3.5-16.9-.7-3.3v-.1l21.6-8.5h.1l2.5-1,24.7-9.7,1.3-.5,41.8-16.4.3-.1,8.8-3.5,9-3.5.2-.1,24-9.4,45.6-17.9,70.3-27.5v.6l2.7,20.8c2.7,19.2-4.8,39.9-18.4,56.7Z"/>
        <path class="cls-21" d="m603.6,317.3l-179.5,52.9-13-62.8,250.4-98,2.8,21.5c4.3,34.3-22.9,73.5-60.7,86.4Z"/>
        <path class="cls-4" d="m572.8,315.6l-150.5,45.2-10.4-50.1,206.9-78.2,2.3,16.5c3.6,26.2-18.1,56.3-48.3,66.6Z"/>
        <path class="cls-16" d="m244.6,142.7h0l-1.1,3.3-1.5,4.7-11.8,35.8-2.7,8.2-2.7,8.1v.1l-.2.7-8.6-3.6-1-.4-7.8-3.3-9.2-3.9-1.1-.5-22.9-9.7-16.2-6.8-65.9-27.8-39.7-16.8c-1.8-.9-3.6-1.8-5.3-2.8l-.5-.3c-5.8-3.3-11.3-7.3-16.2-11.8l-1.2-1.1C7.1,94.2-4.6,63.7,1.7,38l5.2-21,164.1,86.7,4.1,2.2,2.2,1.2,9.8,5.2,23.8,12.6,1.2.6,9.6,5.1,8.1,4.3,1.1.6,11.3,6,2.4,1.2Z"/>
        <path class="cls-32" d="m53.5,131.5l172.3,72.8,20-60.9L8.1,17.8l-5.2,21c-8.1,33.6,14.5,75.6,50.6,92.7Z"/>
        <path class="cls-14" d="m84.3,133.3l144.4,61.9,16-48.6L48,45.5l-4.2,16.1c-6.5,25.6,11.6,58.1,40.5,71.7Z"/>
        <path class="cls-13" d="m273.6,225.2h0l-.9,3.3-13.3,49.5-2.4,9h0l-.9-.3-40.1-14.3-1-.4-7.8-2.8-9.3-3.3-1.1-.4-22.8-8.2-51.6-18.5-41.5-14.8c-1.9-.8-3.7-1.6-5.5-2.5-6.1-3-11.9-6.7-17.2-11-.4-.3-.9-.7-1.3-1.1-17.2-14.5-29-34.8-32-54.9-1-6.7-.9-13.6.3-20.3l3.7-19.5.1-.4.2-1.3,70.4,32.3,59,27.1,15.2,7,22.9,10.5,1.1.5,9.2,4.2,7.8,3.6,1,.5,8.9,4.1,1.3.6,18.7,8.6,6.6,3,1.6.7,4.5,2.1,1.2.6h0l8.1,3.7,6.9,3.1Z"/>
        <path class="cls-25" d="m82.2,224.7l176.1,63.1,16.6-61.9L30.6,113.7l-4,21.3c-6.3,34,18.6,74.7,55.6,89.7Z"/>
        <path class="cls-15" d="m113.1,224.8l147.7,53.8,13.3-49.4-202.1-90.1-3.3,16.3c-5.1,26,14.8,57.4,44.4,69.4Z"/>
        <path class="cls-12" d="m307.4,306.8h0l-.7,3.4-3.6,17.3v.2l-.7,3.4-5.5,26.7-.1.3-.5,2.4-1.4,6.3-.6,2.9-30.4-9-1-.3-89-26.2-59-17.4c-2.1-.7-4.2-1.5-6.3-2.4l-.4-.2c-14.2-6.5-26.7-16.2-36.3-28.6-13-16.5-20-36.7-17.6-55.4l2.7-20.8v-.6l68,26.6,49,19.1,22.9,8.9,1.1.4,9.2,3.6,7.8,3,1,.4,41.1,16.1,1.3.5,23.3,9.1,2.5,1h.1l23.1,9.3Z"/>
        <path class="cls-31" d="m116.3,317.3l179.5,52.9,13-62.8L58.4,209.4l-2.8,21.5c-4.3,34.3,22.9,73.5,60.7,86.4Z"/>
        <path class="cls-11" d="m147.1,315.6l150.5,45.2,10.4-50.1-206.9-78.2-2.3,16.5c-3.6,26.2,18.1,56.3,48.3,66.6Z"/>
        <polygon class="cls-24" points="513.7 316 360.5 404.5 207.2 316 207.2 139 360.5 50.5 513.7 139 513.7 316"/>
        <path class="cls-30" d="m546.9,206.2v-86.3h-.1l-8.3-4.9-.9-.5-4.2-2.5h0l-61.1-35.3-12.3-21.4h-24.7l-74.7-43.2-74.7,43.2h-24.9l-12.3,21.4-61.6,35.6h-.1l-4.2,2.4-1.5.8-7.3,4.3v86.3l-12.3,21.4,10.9,18.9,1.4,2.5v86.3l74.7,43.1,12.3,21.4h24.7l74.7,43.1,74.7-43.1h24.7l12.3-21.4,74.7-43.1v-86.3l1.7-2.9,10.6-18.4-12.2-21.4Zm-240.2,157.1l-8.5-4.9h-.1l-1.1-.7h-11.7l-.1-.1-.1-.3-.2-.4-5.4-9.4-9.8-5.6-53.7-30.9v-73.4l-5.6-9.7-.2-.4.2-.4,5.6-9.7v-73.3l11.3-6.5h0l3.6-2.1h.1l38.8-22.4,9.8-5.6,5.6-9.8.2-.4h11.6l9.7-5.6,53.7-31,53.7,31,9.8,5.6h11.7l.2.4,5.2,9,.4.8,9.7,5.6,38.3,22.1h0l3.6,2.1,11.5,6.7.3.2v73.3l5.4,9.3.3.4.2.4-.2.4-5.6,9.7v73.3l-53.7,31-9.7,5.6-5.2,9h0l-.4.7-.2.4h-11.7l-.8.5-1.2.7h-.1l-7.6,4.4-53.7,31-.3-.2-53.6-30.8Z"/>
        <path class="cls-7" d="m526.1,227.2l-10-17.4v-72l-.2-.1-10-5.8-3.7-2.2h0l-48.4-27.9-10.3-17.8h-20.6l-62.4-36-62.4,36h-20.6l-10.3,17.8-48.8,28.2h-.1l-3.7,2.1-9.8,5.7v72l-10.3,17.8,10.3,17.8v72l32.8,19,29.5,17.1,1,1.6.1.2,9.2,16h20.6l62.1,35.8.3.2,62.4-36h20.6l9.4-16.3.1-.2.7-1.3,30.6-17.6h0l31.9-18.3v-72l10.3-17.8-.3-.6Zm-27.3-9.3l5.1,8.9.2.4.2.3-.2.3-5.4,9.3v70.2l-51.5,29.7-9.3,5.4-5,8.6h0l-.4.7-.2.3h-11.2l-.8.5-1.2.7h-.1l-7.3,4.2-51.5,29.7-.3-.2-50.9-29.4-8.1-4.7h-.1l-1.1-.7h-11.2l-.1-.1-.1-.2-.2-.3-5.2-9-9.3-5.4-51.5-29.7v-70.2l-5.4-9.3-.2-.3.2-.3,5.4-9.3v-70.2l10.8-6.3h0l3.5-2h0l37.1-21.4,9.3-5.4,5.4-9.3.2-.3h11.2l9.3-5.4,51.5-29.7,51.5,29.7,9.3,5.4h11.2l.2.3,5,8.6.4.7,9.3,5.4,36.6,21.1h0l3.5,2,11,6.4.3.2.1,70.1Z"/>
        <path class="cls-19" d="m523,208.8l-.2-.4v-75.4l-10-5.8-3.9-2.3h0l-51.4-29.7-10.8-18.7h-21.6l-65.3-37.7-65.3,37.7h-21.5l-10.8,18.7-51.2,29.6h0l-3.9,2.3-10.2,5.8v75.4l-10.8,18.7,10.8,18.7v75.4l33.8,19.5h0l31.5,18.2.9,1.5.1.2,9.8,17h21.6l65.2,37.7.4-.2,64.9-37.5h21.6l9.7-16.9.1-.2h0l.9-1.6,31.1-18,34.2-19.7v-75.4l10.8-18.6h0l-10.5-18.3Zm-18.4,8.2l5.6,9.8.2.4-.2.4-5.6,9.8v73.5l-53.9,31.1-9.8,5.6-5.4,9.4-.2.4-.2.4h-11.7l-.4.2-1.2.7h-.1l-8.1,4.6-53.5,30.9-.3.2-53.9-31.1-7.8-4.5h-.1l-1.2-.7-.5-.3-.2-.1h-11.7l-.2-.4-.3-.5-5.3-9.2-9.8-5.6-53.9-31.1v-73.5l-5.6-9.8-.2-.4.2-.4,5.6-9.8v-73.5l11.2-6.5,3.6-2.1h.1l39-22.5,9.8-5.7,5.6-9.8.2-.4h11.7l9.8-5.6,53.9-31.1,53.9,31.2,9.8,5.6h11.7l.2.4.2.4h0l.2.4,5.2,9h0l9.8,5.6,39.2,22.6h.1l3.6,2.1,11,6.4-.1,73.5Z"/>
        <path class="cls-27" d="m533.5,227.1l-10.5-18.2v-75.2l-.2-.1-10.5-6.1-3.9-2.2h0l-50.6-29.2-10.7-18.6h-21.5l-65.1-37.6-65.1,37.6h-21.5l-10.8,18.6-50.9,29.4h-.1l-3.9,2.2-10.2,5.9v75.2l-10.8,18.6,10.8,18.6v75.2l34.3,19.8,30.8,17.9,1,1.7.1.2,9.6,16.7h21.5l64.9,37.4.3.2,65.1-37.6h21.5l9.8-17.1.1-.2.8-1.3,31.9-18.4h0l33.3-19.2v-75.2l10.8-18.6-.3-.4Zm-28.6-9.7l5.4,9.3.3.4.2.4-.2.4-5.6,9.7v73.3l-53.7,31-9.7,5.6-5.2,9h0l-.4.7-.2.4h-11.7l-.8.5-1.2.7h-.1l-7.6,4.4-53.7,31-.3-.2-53.4-30.7-8.5-4.9h-.1l-1.1-.7h-11.7l-.1-.1-.1-.3-.2-.4-5.4-9.4-9.8-5.6-54-30.9v-73.4l-5.6-9.7-.2-.4.2-.4,5.6-9.7v-73.3l11.3-6.5h0l3.6-2.1h.1l38.8-22.4,9.8-5.6,5.6-9.8.2-.4h11.6l9.7-5.6,53.7-31,53.7,31,9.8,5.6h11.7l.2.4,5.2,9,.4.8,9.7,5.6,38.3,22.1h0l3.6,2.1,11.5,6.7.3.2.1,73.2Z"/>
        <path class="cls-17" d="m320.5,228.8l25.7,61.9c2.2,5.2-2.8,12.2-8.7,12.1l-20.9-.1c-2.3.1-4.5-1.3-5.3-3.5l-8.8-21.8-8.3-23.5-18.2,23.1-18.3,21.9c-1.7,2.1-4.2,3.4-6.9,3.5l-21.3-.1c-5.9,0-7.8-7-3.4-12.2l51.3-60.1-23.2-60.6c-2-5.2,3-12,8.8-12l20,.1c2.4-.1,4.6,1.4,5.4,3.7l7.7,20.8,7.7,23.7,18.5-23.5,17.1-20.8c1.7-2.1,4.2-3.4,6.9-3.6l20,.1c5.8,0,7.8,7,3.5,12.1l-49.3,58.8Z"/>
        <path class="cls-17" d="m363.2,305c-5.1,0-8.3-4.5-7.1-9.9l28.1-129.3c1.2-5.4,6.3-9.9,11.4-9.8l57.7.3c10.7.1,19.8,2.3,26.9,6.7,7.1,4.3,12.4,11.1,14.8,19,2.7,8.2,2.8,17.8.5,28.6-2.1,10.3-6.5,20.1-12.9,28.5-6.1,8-14,14.5-23.1,18.8-9.3,4.4-19.5,6.6-29.8,6.4l-31.3-.1-6.8,31.1c-1.2,5.4-6.3,9.9-11.4,9.8l-17-.1Zm72.4-74.4c5.8.2,11.4-1.7,15.9-5.4,4.4-3.7,7.5-8.9,8.5-14.6,1.4-6.2.6-11-2.1-14.7s-7.3-5.5-13.5-5.5l-29.9-.1-8.7,40.2,29.8.1Z"/>
        <path class="cls-28" d="m320.5,225.8l25.7,61.9c2.2,5.2-2.8,12.2-8.7,12.1l-20.9-.1c-2.3.1-4.5-1.3-5.3-3.5l-8.8-21.8-8.3-23.5-18.2,23.1-18.3,21.9c-1.7,2.1-4.2,3.4-6.9,3.5l-21.3-.1c-5.9,0-7.8-7-3.4-12.2l51.3-60.1-23.2-60.6c-2-5.2,3-12,8.8-12l20,.1c2.4-.1,4.6,1.4,5.4,3.7l7.7,20.8,7.7,23.7,18.5-23.5,17.1-20.8c1.7-2.1,4.2-3.4,6.9-3.6l20,.1c5.8,0,7.8,7,3.5,12.1l-49.3,58.8Z"/>
        <path class="cls-26" d="m363.2,302c-5.1,0-8.3-4.5-7.1-9.9l28.1-129.3c1.2-5.4,6.3-9.9,11.4-9.8l57.7.3c10.7.1,19.8,2.3,26.9,6.7,7.1,4.3,12.4,11.1,14.8,19,2.7,8.2,2.8,17.8.5,28.6-2.1,10.3-6.5,20.1-12.9,28.5-6.1,8-14,14.5-23.1,18.8-9.3,4.4-19.5,6.6-29.8,6.4l-31.3-.1-6.8,31.1c-1.2,5.4-6.3,9.9-11.4,9.8l-17-.1Zm72.4-74.4c5.8.2,11.4-1.7,15.9-5.4,4.4-3.7,7.5-8.9,8.5-14.6,1.4-6.2.6-11-2.1-14.7s-7.3-5.5-13.5-5.5l-29.9-.1-8.7,40.2,29.8.1Z"/>
        <path class="cls-18" d="m479.1,161.8c6.8,4.1,11.9,10.6,14.2,18.2,2.6,7.9,2.7,17.1.4,27.6-2.1,9.9-6.3,19.3-12.4,27.4-5.8,7.7-13.4,13.9-22.1,18-9,4.2-18.9,6.3-28.8,6.2l-33.2-.2-7.2,33.2c-.9,4.3-5,7.8-9,7.8l-17.2-.1c-4,0-6.6-3.5-5.6-7.8l28.1-129.3c.9-4.3,5-7.8,9-7.8l57.7.3c10.5.1,19.2,2.2,26.1,6.5Zm-26.4,61.9c4.9-4.1,8.2-9.8,9.4-16.1,1.5-6.8.7-12.2-2.4-16.2s-8-6.1-14.7-6.1l-31.8-.1-9.6,44.3,31.8.1c6.3.2,12.4-1.9,17.3-5.9Z"/>
        <path class="cls-29" d="m479.6,161.8c6.8,4.1,11.9,10.6,14.2,18.2,2.6,7.9,2.7,17.1.4,27.6-2.1,9.9-6.3,19.3-12.4,27.4-5.8,7.7-13.4,13.9-22.1,18-9,4.2-18.9,6.4-28.8,6.2l-33.2-.2-7.2,33.2c-.9,4.3-5,7.8-9,7.8l-17.2-.1c-4,0-6.6-3.5-5.6-7.8l28.1-129.3c.9-4.3,5-7.8,9-7.8l57.7.3c10.5.1,19.2,2.2,26.1,6.5Zm-26.4,61.9c4.9-4.1,8.2-9.8,9.4-16.1,1.5-6.8.7-12.1-2.4-16.2-3.1-4-8-6-14.7-6.1l-31.8-.2-9.6,44.3,31.8.1c6.2.3,12.4-1.8,17.3-5.8Z"/>
        <path class="cls-18" d="m318.2,225.9l25.5,60.4c2.1,5-2.1,10.9-7.8,10.8l-20.2-.1c-2.4,0-3.3-1.2-4.2-3.3l-17.3-44.8-36.7,44.8c-1.8,2.1-2.8,3-5.2,3l-20.5-.1c-5.7,0-7.3-6-3.1-11l50.1-58.8-22.6-58.5c-1.9-5,2.4-11.5,8-11.5l19.3.1c2.4,0,3.7,1.2,4.5,3.4l15.4,44.2,35.2-43.6c1.8-2.1,3.6-3.7,6-3.7l19.3.1c5.6,0,7.4,6.1,3.1,11.1l-48.8,57.5Z"/>
        <path class="cls-33" d="m318.4,226l25.5,60.4c2.1,5-2.1,10.9-7.8,10.8l-20.2-.1c-2.4,0-3.3-1.2-4.2-3.3l-17.3-44.8-36.7,44.8c-1.8,2.1-2.8,3-5.2,3l-20.5-.1c-5.7,0-7.3-6-3.1-11l50.1-58.7-22.6-58.5c-1.9-5,2.4-11.5,8-11.5l19.3.1c2.4,0,3.7,1.2,4.5,3.4l15.4,44.2,35.2-43.6c1.8-2.1,3.6-3.7,6-3.7l19.3.1c5.6,0,7.4,6.1,3.1,11.1l-48.8,57.4Z"/>
        <g>
          <path class="cls-20" d="m346.35,163.81l-45.65,51.47-22.86-51.11c-.48-1.08-1.56-1.78-2.75-1.78h-7.17c-2.18,0-3.64,2.25-2.74,4.24l26.44,58.86-52.65,59.44c-1.68,1.9-.4,4.91,2.14,5l7.85.29c.9.03,1.77-.34,2.36-1.01l45.69-51.51,22.86,51.01c.48,1.08,1.56,1.78,2.74,1.78h7.16c2.18,0,3.64-2.25,2.75-4.24l-26.34-58.86,52.8-59.6c1.72-1.94.34-5-2.25-5h-8.12c-.86,0-1.68.37-2.25,1.01Z"/>
          <path class="cls-20" d="m475.83,178.13c-6.01-7.45-14.92-11.58-25.11-11.63l-48.92-.2h-3.55c-1.8,0-3.35,1.25-3.73,3.01l-26.01,119.56c-.52,2.38,1.3,4.63,3.73,4.63h5.12c1.8,0,3.35-1.25,3.73-3.01l8.74-40.27s45.04.18,45.05.18c21.55,0,42.37-17.89,47.42-40.77,2.49-11.83.14-23.32-6.47-31.5Zm-40.5,59.17l-42.44-.26,12.53-57.72,44.54.18c6.4.04,11.94,2.56,15.59,7.11,4.22,5.25,5.66,12.85,3.94,20.85-3.46,16.18-19.13,29.85-34.18,29.85Z"/>
        </g>
        <path class="cls-8" d="m170.9,103.7q0,.1,0,0c0,1.7-.1,3.2-.1,4.8v.7c-.8,19.3-4.2,38.4-9.9,56.8-.7,2.1-1.4,4.3-2.1,6.4v.1c-.3.9-.6,1.9-1,2.8l-.1.2c-.2.5-.4,1-.6,1.6-7,19-16.6,37-28.4,53.4-1.2,1.7-2.4,3.4-3.7,5h0c-.9,1.1-1.8,2.3-2.7,3.4,0,.1-.1.1-.1.1-.3.4-.6.7-.9,1.1-6.8,8.4-14.2,16.3-22.1,23.7-8.4,7.8-17.4,15-26.9,21.4l-.6.4c-13-16.5-20-36.7-17.6-55.4l2.7-20.8c-17.3-14.5-29.1-34.8-32-54.9-1-6.7-.9-13.6.3-20.3l3.7-19.5C7.1,94.2-4.6,63.7,1.7,38l5.2-21,164,86.7Z"/>
        <path class="cls-8" d="m175.1,105.9h0c-1.2,1-2.5,1.9-3.7,2.9l-.6.4c-19.3,14.6-40.8,26-63.7,33.8-2.4.8-4.9,1.6-7.3,2.3h-.1c-2.5.8-5.1,1.5-7.7,2.1l-.3.1-.4.1c-7.2,1.9-14.5,3.3-21.9,4.5-11.3,1.7-22.8,2.6-34.2,2.6-3,0-5.9-.1-8.9-.2h-1.2c-1-6.7-.9-13.6.3-20.3l3.7-19.5C7.1,94.2-4.6,63.7,1.7,38l5.2-21,164.1,86.7,4.1,2.2Z"/>
        <path class="cls-10" d="m694.6,134.3c1.2,6.6,1.3,13.4.3,20.1-2.8,20.2-14.7,40.6-32,55.1l2.7,20.8c2.4,19.2-5,39.9-18.7,56.7l-.6-.4c-18.9-12.6-35.8-28-50.2-45.6l-.9-1.1-.1-.1c-.9-1.1-1.8-2.2-2.6-3.3h0c-1.3-1.7-2.5-3.3-3.8-5-11.9-16.3-21.5-34.2-28.6-53.1-.2-.5-.4-1.1-.6-1.6l-.1-.2c-.3-.9-.7-1.8-1-2.7v-.1c-.7-2.1-1.5-4.3-2.2-6.4-4.8-15.2-8-30.8-9.5-46.6,0-.2,0-.5-.1-.8-.3-3.2-.5-6.5-.7-9.8v-.8c-.1-1.3-.1-2.6-.1-3.9v-.1l167.2-88.4,5.2,21c6.2,25.6-5.4,56.1-27.3,76.7l3.7,19.6Z"/>
        <path class="cls-10" d="m694.6,134.3c1.2,6.6,1.3,13.4.3,20.1l-1.2.1c-3.9.2-7.9.3-11.9.3-10.4,0-20.8-.7-31.1-2.1-7.7-1.1-15.4-2.6-23-4.4-.2,0-.3-.1-.5-.1-.1,0-.2,0-.3-.1-2.6-.6-5.2-1.4-7.8-2.1h-.1c-2.5-.7-5-1.5-7.5-2.3-23.3-7.7-45.1-19.1-64.7-33.8l-.7-.5c-1-.8-2-1.6-3.1-2.4h0l3-1.6,167-88.4,5.2,21c6.2,25.6-5.4,56.1-27.3,76.7l3.7,19.6Z"/>
        <path class="cls-9" d="m542.2,107.3h0c-1,2.2-2,4.3-3,6.4l-.7,1.3c-4.7,9.6-9.9,18.9-15.5,28-.1.1-.2.2-.2.4-2.9,4.6-5.9,9.1-9,13.5-2.9,4-5.8,7.9-8.8,11.8l-.3.4c-4.8,6.1-9.8,11.8-15,17.2-.4.4-.7.7-1.1,1.1v.1c-3.1,3.2-6.3,6.3-9.6,9.3-.8.8-1.7,1.5-2.5,2.3l-.1.1c-8,7.2-16.6,13.7-25.6,19.5-.1.1-.2.1-.3.2-1.8,1.2-3.6,2.3-5.4,3.4-7.2,4.3-14.7,8.1-22.4,11.4-1.9.8-3.9,1.6-5.8,2.3l-.5.2c-15.5,5.9-31.9,9.3-48.5,10.2h-.3c-1,.1-2,.1-3,.1-1.5.1-3.1.1-4.7.1-2,0-4,0-6-.1-1,0-2.1-.1-3.1-.1h-.3c-15.8-1-31.3-4.2-46.1-9.7-.2,0-.3-.1-.5-.2-2.3-.8-4.5-1.7-6.8-2.7-7.8-3.3-15.3-7.1-22.5-11.4-1.8-1.1-3.6-2.2-5.4-3.4-.1-.1-.2-.1-.3-.2-8.5-5.5-16.6-11.7-24.3-18.4l-.1-.1c-.9-.7-1.7-1.5-2.5-2.2-3.6-3.3-7.2-6.7-10.6-10.3l-.1-.1-1.1-1.1c-4.9-5.1-9.7-10.5-14.2-16.2-.4-.4-.7-.9-1-1.3-2.7-3.3-5.3-6.8-7.8-10.2-3.2-4.4-6.3-8.9-9.2-13.6-.4-.6-.7-1.1-1.1-1.7-5.6-9-10.8-18.2-15.5-27.8-.4-.7-.7-1.4-1.1-2.2-1-2.1-2-4.2-3-6.3v-.1l9.8,5.2,61.6-35.6,12.3-21.4h24.7l74.7-43.2,74.7,43.2h24.7l12.3,21.4,61.1,35.3,9-4.8Z"/>
      </g>
    </g>
  </g>
</svg>